<svg id="visual" viewBox="0 0 900 600" width="900" height="600" xmlns="http://www.w3.org/2000/svg" xmlns:xlink="http://www.w3.org/1999/xlink" version="1.1"><rect x="0" y="0" width="900" height="600" fill="#fff"></rect><path d="M345 0L349.8 25C354.7 50 364.3 100 356.8 150C349.3 200 324.7 250 294.8 300C265 350 230 400 226.8 450C223.7 500 252.3 550 266.7 575L281 600L0 600L0 575C0 550 0 500 0 450C0 400 0 350 0 300C0 250 0 200 0 150C0 100 0 50 0 25L0 0Z" fill="#b8bec7" stroke-linecap="round" stroke-linejoin="miter"></path></svg>