<svg id="visual" viewBox="0 0 900 600" width="900" height="600" xmlns="http://www.w3.org/2000/svg" xmlns:xlink="http://www.w3.org/1999/xlink" version="1.1"><rect x="0" y="0" width="900" height="600" fill="#fff"></rect><path d="M0 232L25 229.3C50 226.7 100 221.3 150 219.5C200 217.7 250 219.3 300 224.2C350 229 400 237 450 242.2C500 247.3 550 249.7 600 251.7C650 253.7 700 255.3 750 252.2C800 249 850 241 875 237L900 233L900 0L875 0C850 0 800 0 750 0C700 0 650 0 600 0C550 0 500 0 450 0C400 0 350 0 300 0C250 0 200 0 150 0C100 0 50 0 25 0L0 0Z" fill="#0066FF" stroke-linecap="round" stroke-linejoin="miter"></path></svg>