<svg id="Layer_1" data-name="Layer 1" xmlns="http://www.w3.org/2000/svg" viewBox="0 0 724 562"><defs><style>.cls-1,.cls-4,.cls-5{fill:#2c2a40;}.cls-1{opacity:0.1;}.cls-2{fill:#7b7b9a;}.cls-3{fill:#b0b1ca;}.cls-5{opacity:0.2;}.cls-6{fill:#00497b;}.cls-7{fill:#f9b587;}.cls-8{fill:#f39568;}.cls-9{fill:#5b5b6c;}.cls-10{fill:#e03641;}.cls-11{fill:#3e86aa;}.cls-12{fill:#fff;}.cls-13{fill:#8724d4;}.cls-14{fill:#8824d4;}.cls-15{fill:#8624d4;}</style></defs><path class="cls-1" d="M793.09,433.43c-15.24-54.11-70.87-50.74-123.58-40.7-28.35,5.4-68.06,12.87-109.49,1.83-89.18-23.75-191.71-29.69-242.25,0S236.87,460,251.44,510s51.58,94.91,20.1,121.66-31,128.05,98.5,135.94,116.61-105.68,202.1-100.4,261,82.14,268.39,26.41-87.8-95.49-53.67-188C793.64,487.21,800.05,458.17,793.09,433.43Z" transform="translate(-155 -206)"/><path class="cls-1" d="M495.43,344.87s3.31-19.41,12.61-18.65c2.58.21,4.33,2.6,5.48,5.16a2,2,0,0,0,3.69-.17c2.47-7.89,7.5-19.93,15.31-19.93,8.07,0,8.34,13.78,7.75,22.16a1.38,1.38,0,0,0,2.49.78c2.13-2.87,5.23-5.62,9-4.82,7.36,1.55,5.38,15.47,5.38,15.47Z" transform="translate(-155 -206)"/><path class="cls-1" d="M155,527.38s3.31-19.4,12.61-18.65c2.58.21,4.33,2.6,5.48,5.16a2,2,0,0,0,3.69-.17c2.47-7.89,7.5-19.92,15.31-19.92,8.07,0,8.34,13.77,7.75,22.16a1.38,1.38,0,0,0,2.49.77c2.12-2.86,5.23-5.61,9-4.82,7.36,1.56,5.38,15.47,5.38,15.47Z" transform="translate(-155 -206)"/><path class="cls-1" d="M810,449.85s3.31-19.41,12.62-18.65c2.57.2,4.33,2.59,5.47,5.15a2,2,0,0,0,3.7-.17c2.46-7.88,7.5-19.92,15.3-19.92,8.08,0,8.34,13.77,7.76,22.16a1.37,1.37,0,0,0,2.48.77c2.13-2.86,5.24-5.61,9-4.81,7.37,1.55,5.38,15.47,5.38,15.47Z" transform="translate(-155 -206)"/><path class="cls-2" d="M785.57,766.63s10.4-1.67,9.79-14.25-5.2-29.9-14.37-34.92-15.86,2.23-15.86,2.23Z" transform="translate(-155 -206)"/><path class="cls-3" d="M744.61,717.46c.31,4.19,4.59,10.33,13.76,14.8s14.06,20.4,18.18,27.39a15.63,15.63,0,0,0,5.63,5.89,7.76,7.76,0,0,0,3.4,1.09s0-1.1.06-3a131.44,131.44,0,0,0-2-23.26c-2.51-13.69-11.39-18.45-11.39-18.45-1.62-2.52-5.1-4.32-9.08-5.45-6.5-1.86-14.3-1.94-17.32-.54C745,716.32,744.57,716.83,744.61,717.46Z" transform="translate(-155 -206)"/><path class="cls-4" d="M780.14,738.13c2.17,8.39,3.15,22.23,2,27.41a7.76,7.76,0,0,0,3.4,1.09,129.17,129.17,0,0,0-1.9-26.26c-2.51-13.69-11.39-18.45-11.39-18.45-1.62-2.52-5.1-4.32-9.08-5.45C768.46,721.28,778.3,731,780.14,738.13Z" transform="translate(-155 -206)"/><path class="cls-5" d="M744.61,717.46c.31,4.19,4.59,10.33,13.76,14.8s14.06,20.4,18.18,27.39a15.63,15.63,0,0,0,5.63,5.89,7.76,7.76,0,0,0,3.4,1.09s0-1.1.06-3a1.64,1.64,0,0,0-.68-.35c-3.05-.7-7.18-1.78-9.63-12.15s-6.57-17.89-13.6-21.1c-6.41-2.93-14.47-12.45-15.84-14.1C745,716.32,744.57,716.83,744.61,717.46Z" transform="translate(-155 -206)"/><path class="cls-4" d="M670.76,454.85s70.78-9.72,90,17.76-6.6,119.32-27.43,133.23-55.44,6.7-68.39-2S646,468.12,670.76,454.85Z" transform="translate(-155 -206)"/><path class="cls-6" d="M752.76,569.22a17.83,17.83,0,0,0,12.18-11.6l-10.7-4.33S750.06,563.21,752.76,569.22Z" transform="translate(-155 -206)"/><path class="cls-7" d="M752.76,552.31c14.67,20.4,47.79,25.71,47.79,25.71,6.86-1.83,16-10.55,25-21.18h0c17.17-20.21,34-47.35,34-47.35l-13.76-4.19S821.64,529.68,811.25,535s-13.45,10.34-13.45,10.34a35.38,35.38,0,0,0-3.68-3.15c-7.39-5.57-17.57-9.92-17.57-9.92C764.78,529.25,752.76,552.31,752.76,552.31Z" transform="translate(-155 -206)"/><path class="cls-8" d="M752.76,552.31c14.67,20.4,47.79,25.71,47.79,25.71,6.86-1.83,16-10.55,25-21.18,0,0-16.14,15.67-26.4,17s-29.71-11.46-31.67-16.35.94-17.33,9-25.22C764.78,529.25,752.76,552.31,752.76,552.31Z" transform="translate(-155 -206)"/><path class="cls-4" d="M612,605.84s-.77,41.24,5.56,67.27,33.39-42.63,33.39-42.63S626.68,611,612,605.84Z" transform="translate(-155 -206)"/><path class="cls-4" d="M706.54,630s-.59,24.31-18,41.5a115,115,0,0,0-24.9,37.3s26.08-10.89,42.92-8c0,0,8.81.42,12-2.93s4.12-7.34,9.17-6.08,12.15-.21,14-.42,13.53,16.76,11.23,27.87c0,0-9.17,2.31-10.31,3.77s-7.8,7.76-11.92,7.55-15.13,5.66-15.13,5.66-56.71,19.72-61.9,23c-8.74,5.61-50,11.74-53.65-9.43s32.33-121.76,37.37-132.66S700.47,616.79,706.54,630Z" transform="translate(-155 -206)"/><path class="cls-9" d="M655,699.76l1.6.53c.58-1.45,1.29-3,2.12-4.59l-1.54-.67C656.3,696.67,655.57,698.26,655,699.76Z" transform="translate(-155 -206)"/><path class="cls-9" d="M738.81,697.65l.36,1.52c1.69-.34,3.51-.67,5.41-1l-.3-1.53C742.36,697,740.52,697.31,738.81,697.65Z" transform="translate(-155 -206)"/><path class="cls-9" d="M654.52,711.73l-1.69.17,0,.18A8.14,8.14,0,0,0,655,717l1.25-1.06a6.88,6.88,0,0,1-1.73-4Z" transform="translate(-155 -206)"/><path class="cls-9" d="M668,716.3l.46,1.5c1.74-.44,3.58-1,5.32-1.5l-.53-1.48C671.49,715.33,669.67,715.87,668,716.3Z" transform="translate(-155 -206)"/><path class="cls-9" d="M666.62,680.15c-1.08,1.48-2.09,2.91-3,4.27l1.44.82c.92-1.34,1.93-2.76,3-4.23Z" transform="translate(-155 -206)"/><path class="cls-9" d="M663.06,688.22l-1.46-.79c-1,1.53-1.91,3-2.73,4.44l1.51.73C661.18,691.2,662.08,689.73,663.06,688.22Z" transform="translate(-155 -206)"/><path class="cls-9" d="M698.32,628.34l-1.67-.27c-.31,1.64-.68,3.3-1.09,4.92l1.66.35C697.64,631.69,698,630,698.32,628.34Z" transform="translate(-155 -206)"/><path class="cls-9" d="M673.34,674l-1.38-.9c-1.16,1.49-2.2,2.85-3.19,4.15l1.4.88C671.15,676.82,672.19,675.47,673.34,674Z" transform="translate(-155 -206)"/><path class="cls-9" d="M677.45,666.15q-1.62,2-3.26,4.09l1.38.91c1.09-1.37,2.17-2.74,3.25-4.08Z" transform="translate(-155 -206)"/><path class="cls-9" d="M655.43,703.56l-1.64-.41a26.47,26.47,0,0,0-1,5.11l1.7.12A25,25,0,0,1,655.43,703.56Z" transform="translate(-155 -206)"/><path class="cls-9" d="M659.13,717.29l-.32,1.52a11.53,11.53,0,0,0,2.1.17,21.91,21.91,0,0,0,3.71-.35l-.31-1.53A15.86,15.86,0,0,1,659.13,717.29Z" transform="translate(-155 -206)"/><path class="cls-9" d="M704.68,710.54l.28,1.53c1.85-.29,3.7-.65,5.48-1.09l-.44-1.5C708.27,709.9,706.48,710.26,704.68,710.54Z" transform="translate(-155 -206)"/><path class="cls-9" d="M713.6,708.47l.56,1.47a47.9,47.9,0,0,0,5.2-2l-.76-1.39A43.57,43.57,0,0,1,713.6,708.47Z" transform="translate(-155 -206)"/><path class="cls-9" d="M676.86,713.74l.52,1.49c2.12-.62,3.74-1.05,5.26-1.4l-.42-1.51C680.67,712.68,679,713.12,676.86,713.74Z" transform="translate(-155 -206)"/><path class="cls-9" d="M695.5,711.29v1.55c1.85,0,3.73-.11,5.6-.29l-.17-1.55C699.12,711.18,697.29,711.27,695.5,711.29Z" transform="translate(-155 -206)"/><path class="cls-9" d="M729.68,700l.61,1.45c1.46-.51,3.2-1,5.19-1.5l-.43-1.5A55.11,55.11,0,0,0,729.68,700Z" transform="translate(-155 -206)"/><path class="cls-9" d="M724.35,702.9a14.37,14.37,0,0,1-2.54,2l1,1.28a16,16,0,0,0,2.84-2.19,7,7,0,0,1,1.38-1l-.91-1.32A9.14,9.14,0,0,0,724.35,702.9Z" transform="translate(-155 -206)"/><path class="cls-9" d="M694.64,636.36c-.49,1.62-1,3.24-1.59,4.79l1.61.5c.58-1.58,1.13-3.23,1.62-4.89Z" transform="translate(-155 -206)"/><path class="cls-9" d="M679.71,663.32l1.37.92c1.11-1.39,2.21-2.75,3.26-4.09l-1.38-.91C681.91,660.57,680.82,661.94,679.71,663.32Z" transform="translate(-155 -206)"/><path class="cls-9" d="M689.41,652.84l-1.5-.74c-.88,1.49-1.81,2.94-2.78,4.29l1.42.85C687.55,655.85,688.51,654.37,689.41,652.84Z" transform="translate(-155 -206)"/><path class="cls-9" d="M689.61,649l1.54.66c.77-1.5,1.51-3.09,2.19-4.7l-1.58-.56C691.09,646,690.36,647.54,689.61,649Z" transform="translate(-155 -206)"/><path class="cls-9" d="M686,711.57l.29,1.53a26.63,26.63,0,0,1,5.31-.35l.09-1.55A28.18,28.18,0,0,0,686,711.57Z" transform="translate(-155 -206)"/><path class="cls-7" d="M609.89,329.89l6.92,26.94,0,.16a98.41,98.41,0,0,0,1.94,11.58c1.66,7.34,4.61,16.67,9.65,23.3a27.23,27.23,0,0,0,2.46,2.85s4.38,15.38,9.1,28.66h0c2.77,7.82,5.67,14.92,7.86,17.72,0,0,27.94-4.8,21.25-20.07,0,0-9.51-19.92-17-34.59v0c-1.45-2.84-2.82-5.48-4-7.75l-8.56-17.87-4.11-8.56-12.45-26Z" transform="translate(-155 -206)"/><path class="cls-8" d="M640,423.38c2.77,7.82,5.67,14.92,7.86,17.72,0,0,27.94-4.8,21.25-20.07,0,0-9.51-19.92-17-34.59.18.57,6.73,21.55,4.77,27.44S649.1,425.5,640,423.38Z" transform="translate(-155 -206)"/><path class="cls-10" d="M640.18,442.09c.41,11.11,5.41,24.33,11.21,32.22,3.49,3.36,7.86,3.35,12.33,1.6,11.35-4.46,23.37-20.16,23.37-20.16l-16.37-31.63-1.6-3.09c-9.25,2.3-18.61,8.32-24,12.25-2.94,2.13-4.73,3.65-4.73,3.65A33.68,33.68,0,0,0,640.18,442.09Z" transform="translate(-155 -206)"/><path class="cls-5" d="M640.18,442.09c.41,11.11,5.41,24.33,11.21,32.22,3.49,3.36,7.86,3.35,12.33,1.6-9.81-8.91-16.52-33.83-18.64-42.63-2.94,2.13-4.73,3.65-4.73,3.65A33.68,33.68,0,0,0,640.18,442.09Z" transform="translate(-155 -206)"/><path class="cls-4" d="M640.18,442.09c7.65-6.94,25.16-15.44,30.54-18l-1.6-3.09c-14.24,3.55-28.77,15.9-28.77,15.9A33.68,33.68,0,0,0,640.18,442.09Z" transform="translate(-155 -206)"/><path class="cls-10" d="M603,611.13C624.31,636.34,713.23,638,713.23,638s-3.15-33.36,0-49.88c3.47-18.16,6.47-44.85,6.47-44.85,8.14,5.44,20.56,15.56,27.64,21.43,3.29,2.74,5.42,4.56,5.42,4.56a75.88,75.88,0,0,1,8.54-21.79c7.3-12.11,15.25-15.17,15.25-15.17l-3.72-4.45-27-32.22-29-22-5-3.78L689,456.47,679.67,451s-24.16,9.24-31,18.84S626,523.91,621.13,545.75c-6.27,28.31-13.8,52.28-16.79,61.42v0C603.5,609.74,603,611.13,603,611.13Z" transform="translate(-155 -206)"/><path class="cls-5" d="M603,611.13C624.31,636.34,713.23,638,713.23,638s-3.15-33.36,0-49.88c3.47-18.16,6.47-44.85,6.47-44.85,8.14,5.44,20.56,15.56,27.64,21.43,3.29,2.74,5.42,4.56,5.42,4.56a75.88,75.88,0,0,1,8.54-21.79S730.13,532,716.81,518.5c0,0-16.61,42-22.32,63.15C687.09,609,662,620.22,639,618.82s-34.62-11.65-34.62-11.65v0C603.5,609.74,603,611.13,603,611.13Z" transform="translate(-155 -206)"/><path class="cls-4" d="M702.64,478.53c5.27-.95,8-3.63,12-6.61l-2.75-2.08-24.35-17.67c-3.22,1.88-7.26,3.72-7.82,11.22C678.82,474.7,691.88,480.47,702.64,478.53Z" transform="translate(-155 -206)"/><path class="cls-4" d="M747.34,564.66c3.29,2.74,5.42,4.56,5.42,4.56,7.29-30.6,23.79-37,23.79-37l-3.72-4.45A59.44,59.44,0,0,0,747.34,564.66Z" transform="translate(-155 -206)"/><path class="cls-4" d="M730.13,444s.48,12.15-14.83,14.64C715.3,458.59,719.13,442.7,730.13,444Z" transform="translate(-155 -206)"/><path class="cls-10" d="M705,417.93c9.25,13.58,24.2,25,24.2,25s31.9-14.09,21.41-37.22a40.06,40.06,0,0,0-10-14h0c-16-13.93-37.22-4.93-37.22-4.93C694.12,395.58,697.86,407.4,705,417.93Z" transform="translate(-155 -206)"/><path class="cls-11" d="M740.63,391.71h0Z" transform="translate(-155 -206)"/><path class="cls-5" d="M705,417.93c9.25,13.58,24.2,25,24.2,25s31.9-14.09,21.41-37.22a40.06,40.06,0,0,0-10-14c.18.26,9,13.14,0,21.72S715.81,425.21,705,417.93Z" transform="translate(-155 -206)"/><path class="cls-4" d="M729.05,411.75s-8.33-39.43-35-37.64c-25,1.67-5.52,31.91-5.52,31.91S724.58,415.43,729.05,411.75Z" transform="translate(-155 -206)"/><path class="cls-4" d="M696.07,397.8s-11.45,2.09-10.38,11.73C685.69,409.53,695.39,404.27,696.07,397.8Z" transform="translate(-155 -206)"/><path class="cls-7" d="M716,456.19l-4.19,13.65a5.1,5.1,0,0,1-4,3.74c-17.52,3.52-25.87-8.23-24.1-12.34C686,460.5,725,449.1,732.06,435.4,732.06,435.4,729.57,447.64,716,456.19Z" transform="translate(-155 -206)"/><path class="cls-7" d="M685.7,455.6c5.61,2,13.51,3.76,21.73,2.43C723,455.51,731,438.72,731,438.72s2.59-11.4-.9-21.94a25.3,25.3,0,0,0-4.35-8.14c-7.29-9-19.43-10.63-26.1-11.21a9,9,0,0,0-8.27,3.76l-2.93,4.37-2,2.92a19.92,19.92,0,0,0-1.14,1.93,18.78,18.78,0,0,0-2,7.06l-.23,2.86a19.44,19.44,0,0,0-3.46,5.84,18.48,18.48,0,0,0-1.17,5.65l-.61,12.88A11.2,11.2,0,0,0,685.7,455.6Z" transform="translate(-155 -206)"/><path class="cls-4" d="M701.75,412.77s12.41-4.29,15.06,5.1l-1.94,1.36s-3.75-7.24-13.63-4Z" transform="translate(-155 -206)"/><path class="cls-8" d="M683.13,420.33a19.44,19.44,0,0,0-3.46,5.84c2.45-.47,6.69,0,13.8,4,0,0-2.62-4.63-6.63-6.31a1.55,1.55,0,0,1-.59-2.54l5.29-5.43a4.56,4.56,0,0,0-1.71-2.75,32.43,32.43,0,0,0-4.44-2.71,18.78,18.78,0,0,0-2,7.06Z" transform="translate(-155 -206)"/><path class="cls-4" d="M686.68,408.66a24.41,24.41,0,0,1,4.85,3l-.72,2.18a17,17,0,0,0-5.16-3,1.27,1.27,0,0,1-.85-1.73v0A1.43,1.43,0,0,1,686.68,408.66Z" transform="translate(-155 -206)"/><path class="cls-12" d="M681.87,431.58,703.41,438s-7.25,9.26-18.12,4.61C676.76,439,681.87,431.58,681.87,431.58Z" transform="translate(-155 -206)"/><path class="cls-8" d="M687.09,455.75s13.51,3.66,28.21-9.91c0,0,.31,7.29-7.57,14.44-5.73,5.21-16.57,4.34-22,3.49a2.15,2.15,0,0,1-1.66-3.25Z" transform="translate(-155 -206)"/><path class="cls-7" d="M727,433.83s7.13-5.23,11.36.09-6.34,19.55-13.21,13.35S727,433.83,727,433.83Z" transform="translate(-155 -206)"/><path class="cls-4" d="M701.45,419.78s2.82-2.89,6.14-1.58c4.82,1.9,4,6,4,6S709.69,416.44,701.45,419.78Z" transform="translate(-155 -206)"/><path class="cls-4" d="M689.48,417.81s-1.59-4.94-5.65-1.34C683.83,416.47,687.39,414.55,689.48,417.81Z" transform="translate(-155 -206)"/><path class="cls-8" d="M688.32,405.49c0,.15-.37.7-.36.85s7-5.34,19.24-1a36.85,36.85,0,0,1,18.28,14.95l4.65-3.5a25.3,25.3,0,0,0-4.35-8.14c-7.29-9-19.43-10.63-26.1-11.21a9,9,0,0,0-8.27,3.76Z" transform="translate(-155 -206)"/><path class="cls-4" d="M723.29,434.67l4,1.68,5.88-4.82c.93-4.63-3.18-17-4.15-19.78-.51-.45-1.36-.9-2-1.34,0,0-4,12.79.34,17.53Z" transform="translate(-155 -206)"/><path class="cls-8" d="M616.81,356.83l0,.16a98.41,98.41,0,0,0,1.94,11.58l20.73-7.77-4.11-8.56Z" transform="translate(-155 -206)"/><path class="cls-5" d="M647.21,486.67l16.41,13.39s-5.87,21-18.42,16.35C630.07,510.75,647.21,486.67,647.21,486.67Z" transform="translate(-155 -206)"/><polygon class="cls-4" points="439.86 164.98 512.88 140.06 494.83 95.86 421.81 120.78 439.86 164.98"/><polygon class="cls-4" points="421.81 120.78 439.86 164.98 512.88 140.06 510.13 139.34 423.88 116.95 422.48 119.53 422.49 119.53 421.81 120.78"/><path class="cls-12" d="M577.48,325.53l17.24,42.38,2.21-.76,26.21-33.94L578.88,323Z" transform="translate(-155 -206)"/><polygon class="cls-4" points="441.93 161.15 511.76 137.32 493.71 93.12 423.88 116.95 441.93 161.15"/><path class="cls-7" d="M602.5,311.23h0a4.91,4.91,0,0,1,3.32-1.46c.21-.88,1.33-1.53,2.59-1.77a3.67,3.67,0,0,1,2.17.3,2.5,2.5,0,0,1,2.81-1.21l.52.21a2.38,2.38,0,0,1,.88-1.14h0a4.24,4.24,0,0,1,4-1.15s7.73,2.85,8.47,8.3,1.83,11.79-.94,10.88a4.88,4.88,0,0,1-2.25-2.38c.29,3.27.12,5.71-1.67,5.13-1-.33-2-1.67-2.76-3.39.17,2.77-.13,4.7-1.74,4.17-1.45-.47-2.86-3.11-3.75-5.93.27,3.15.07,5.47-1.68,4.9-2.14-.7-2.75-5.09-4.24-8.64-1.75-4.15-2.16-2-4.73-3.5l-2.31.79A4.53,4.53,0,0,1,602.5,311.23Z" transform="translate(-155 -206)"/><path class="cls-7" d="M841.83,512.34a14,14,0,0,1-6.62-8.11c-.3-1-.64-2-1-3-1.53-3.91-.31-12.29,0-15.65s2.9-9.78,3.66-10.47,5.35,2.28,3.52,6.58-.52,9.1.43,10.48,5.22-1.14,6.29-3.65,10.4-21.52,12.23-22.08,3.36-.14,2.14,4.75-7,13.42-6.27,15.79,2.14.42,2.6-.84,8-19.24,9.17-19.89,4.74-1.77,2.91,5.85-7.53,16.91-7.19,18.58,8.14-16.87,10.32-17.91,3.78.83,2.06,5.44-6.31,13.56-6.69,14.56-.15,1.57.66,1.15,5.65-11.3,6.76-11.93,3.86.52.88,8-5,14-13.07,20.88c-5,4.22-7.45,6.78-12.15,6.16C849.62,516.6,845.34,514.34,841.83,512.34Z" transform="translate(-155 -206)"/><path class="cls-4" d="M740.63,491.42s2-20.14-15.31-24.33c-12.4-3-33.43,17.89-38.75,41.35-9.41,41.5,12.4,77.68,26.67,82.43,0,0,13-9.22,3.09-21.65,0,0-26.85-24.74-14.88-60.36,10-29.66,25.89-37.3,31.88-22.74Z" transform="translate(-155 -206)"/><path class="cls-4" d="M630,515l7.42-20.85s-1-36.43,41-45.62a10.35,10.35,0,0,1-.56-3.84l.26-5.56C672.89,439.46,619.3,453.62,630,515Z" transform="translate(-155 -206)"/><path class="cls-8" d="M797.8,557.48a51,51,0,0,1,0-12.15,35.38,35.38,0,0,0-3.68-3.15C792.3,555,797.8,557.48,797.8,557.48Z" transform="translate(-155 -206)"/><path class="cls-8" d="M628.44,391.87a27.23,27.23,0,0,0,2.46,2.85S638,391,640,390A42.88,42.88,0,0,0,628.44,391.87Z" transform="translate(-155 -206)"/><path class="cls-3" d="M741.71,692.37c3.8,3.28,6.87,10.94,8.86,17.16,0,0,0,0,0,0,1.62,5,2.52,9.12,2.52,9.12,3.38,3.35,11.08,2.39,23.45,3.62,11.14,1.1,18.94,8.18,27.25,11.23h0a23.38,23.38,0,0,0,2.78.85c4.94,1.19,8.42.45,10.31-1.74,1.72-2,2.13-5.13,1.15-9.12-2.06-8.4-25.22-26.84-31.86-29.29s-10.78-3.9-18.68-9.84S751.57,678,750,680.25l-1.17,1.69C746.32,685.52,741.71,692.37,741.71,692.37Z" transform="translate(-155 -206)"/><path class="cls-4" d="M748.79,681.94c2.61-.27,7-.39,10.19,1.29,4.74,2.51,11.47,8.38,18.65,11.45s20.94,11.74,28.12,17.89,11.41,15.82,9.32,19-5.89,3.07-11.26,2a23.38,23.38,0,0,0,2.78.85c9.4,2.26,13.53-2.46,11.46-10.86s-25.22-26.84-31.86-29.29-10.78-3.9-18.68-9.84S751.57,678,750,680.25Z" transform="translate(-155 -206)"/><path class="cls-5" d="M750.58,709.55c1.62,5,2.52,9.12,2.52,9.12,3.38,3.35,11.08,2.39,23.45,3.62,11.14,1.1,18.94,8.18,27.25,11.23h0a23.38,23.38,0,0,0,2.78.85c4.94,1.19,8.42.45,10.31-1.74l.62-3.3a21.22,21.22,0,0,1-17.73-1.26c-7.25-3.84-10.53-7.6-16.35-9.08,1.08-4-1.38-8.38-1.38-8.38a29.79,29.79,0,0,1-1.81,7.69,21,21,0,0,0-3.69-.15C767.1,718.57,752.33,714.41,750.58,709.55Z" transform="translate(-155 -206)"/><path class="cls-3" d="M197.64,629.63a11.36,11.36,0,0,0,7.32-3.45l.19-.19h0c3.56-3.51,6.13-8.85,8.66-12.87a25.86,25.86,0,0,1,2.24-3.13c2.39-2.75,6.55-10,10.18-16.66l.55-1c3.53-6.53,6.41-12.24,6.41-12.24a53.85,53.85,0,0,0-3.48-7.26,32.7,32.7,0,0,0-2.18-3.32c-1.59-2.1-3.43-3.83-5.39-4.38-6.12-1.72-11.78,2-16.48,7s-17.28,25.57-19.35,34.15l-.12.54C184.06,617.59,188.08,630.13,197.64,629.63Z" transform="translate(-155 -206)"/><path class="cls-4" d="M197.64,629.63a11.46,11.46,0,0,0,7.51-3.64c-6.65,2.91-10.7,1.15-13-1.26-2.91-3-4-11.29-3.25-14.79,1.86-8.51,8.75-21.86,12.25-27.17s10.46-14.08,17.21-14.94a16.16,16.16,0,0,1,9.22,1.67c-1.59-2.1-3.43-3.83-5.39-4.38-6.12-1.72-11.78,2-16.48,7s-17.83,26.46-19.47,34.69C184.06,617.59,188.08,630.13,197.64,629.63Z" transform="translate(-155 -206)"/><path class="cls-5" d="M197.64,629.63a11.36,11.36,0,0,0,7.32-3.45l.19-.19h0c3.56-3.51,6.13-8.85,8.66-12.87a25.86,25.86,0,0,1,2.24-3.13c2.39-2.75,6.55-10,10.18-16.66l.55-1a4.38,4.38,0,0,0-4.62-1.26s-4.75,4-9.23,12.22c-4.92,9-7.51,17.61-16.73,17.69s-7.56-5.46-8.79-13.43c-.18-1.11-.56-1.48-1.1-1.28l-.12.54C184.06,617.59,188.08,630.13,197.64,629.63Z" transform="translate(-155 -206)"/><path class="cls-3" d="M350.24,705.26c.1,4.67,4.12,35.59,15.14,41.84,5.57,3.16,8.77,3,10.37.67.92-1.34,1.32-3.42,1.34-6a44.31,44.31,0,0,0-.47-6.35c-1.51-11.33-1.69-37.58,9.21-43.27,0,0-2-13.54-7.1-21.88a14.4,14.4,0,0,0-5.48-5.62s-7.61,0-12.4.63c-2.07.26-4.85.18-7.47.83-3.43.85-6.56,3-7.37,8.78C344.58,685.11,350.13,700.58,350.24,705.26Z" transform="translate(-155 -206)"/><path class="cls-4" d="M350.24,705.26c.1,4.67,4.12,35.59,15.14,41.84,5.57,3.16,8.77,3,10.37.67a15.86,15.86,0,0,1-10.19-3.48c-4.79-3.76-10.82-25-10.46-31.83s-2.74-19.31-5.45-28.87c-2.06-7.24,1.76-14.43,3.73-17.5-3.43.85-6.56,3-7.37,8.78C344.58,685.11,350.13,700.58,350.24,705.26Z" transform="translate(-155 -206)"/><path class="cls-5" d="M350.24,705.26c.1,4.67,4.12,35.59,15.14,41.84,5.57,3.16,8.77,3,10.37.67.92-1.34,1.32-3.42,1.34-6-2.11.43-5.27-.3-8.94-2.19-6.46-3.32-7.75-21.43-6.82-33.38s-6.89-21.36-2.39-28.89,19.35-5.82,19.35-5.82a10.07,10.07,0,0,0,.44-1.22,14.4,14.4,0,0,0-5.48-5.62s-7.61,0-12.4.63c-2.07.26-4.85.18-7.47.83-3.43.85-6.56,3-7.37,8.78C344.58,685.11,350.13,700.58,350.24,705.26Z" transform="translate(-155 -206)"/><path class="cls-4" d="M351.19,377.62s-66.37,1.64-79,29.59,27.25,108,48.75,117.61,51.82-2.13,62.1-12S376.18,386.05,351.19,377.62Z" transform="translate(-155 -206)"/><path class="cls-7" d="M309.75,452.09a70.65,70.65,0,0,1-5.15,23.57s-1.49,8.19-3.8,18.34h0c-2.72,12-5.37,20.75-9.29,28a119.09,119.09,0,0,0-7.33,16.57c-.2.56-.39,1.09-.56,1.61h0c-1.56,4.58-2.25,7.51-2.25,7.51l-14.56-4.44s-.9-14-.64-21.66c.33-9.46-.76-28,5.87-43.29h0a26,26,0,0,1,1.72-3.34s1.87-15.11,4.56-25.08a26.31,26.31,0,0,1,2.92-7.5S302.79,440.34,309.75,452.09Z" transform="translate(-155 -206)"/><path class="cls-8" d="M283.16,476.36s-8.47.08-11.12,2h0a26,26,0,0,1,1.72-3.34S280.26,474.63,283.16,476.36Z" transform="translate(-155 -206)"/><path class="cls-8" d="M309.75,452.09a70.65,70.65,0,0,1-5.15,23.57s-1.49,8.19-3.8,18.34c.89-7.64.27-21.36.44-31.36.12-6.83-6.61-8.43-12.49-10.36-2.45-.81-7.25-1.64-10.08-2.49-.12,0-.24.07-.36.11a26.31,26.31,0,0,1,2.92-7.5S302.79,440.34,309.75,452.09Z" transform="translate(-155 -206)"/><path class="cls-7" d="M279.22,537.35l13.95,9a5.08,5.08,0,0,1,2.4,4.15l.23,12.29a2.77,2.77,0,0,1-2.85,2.69h0a2.87,2.87,0,0,1-2.85-2L286.88,552l-3.29-1.1,2.06,6.91L288.2,564l6.36,7.27a2.24,2.24,0,0,1-.51,3.4h0a2.78,2.78,0,0,1-3.39-.28l-8.38-8-5.6-6.29,4.41,7.9,8.51,11.62a2.12,2.12,0,0,1,0,2.54h0a2.63,2.63,0,0,1-3.81.33l-9.22-8.38-5.24-7.47,4.6,13.18,4.09,8.43a2,2,0,0,1-.87,2.56h0a2.35,2.35,0,0,1-3.08-.66l-5.93-8.75-4.27-10.16,2.75,8.75,1.52,3a1.2,1.2,0,0,1-.66,1.65h0a1.44,1.44,0,0,1-1.67-.4l-2.26-2.86-3.36-7.24,4.7-31S268.83,538.89,279.22,537.35Z" transform="translate(-155 -206)"/><path class="cls-8" d="M283.62,540.2a17.52,17.52,0,0,0-9.36-1.76s5.44-1.87,9.92.15Z" transform="translate(-155 -206)"/><path class="cls-7" d="M416.55,354c14.84-26.76,8.8-61.91,7.75-70.8a11.74,11.74,0,0,0-1.08-3.19h0c-5.63-12.23-31.12-45.19-36.92-52.64l-.9-1.14-.28-.36-17.89,7.61s12,11.49,16.75,25.91,16,33.34,16,33.34c-5,16.73-5.36,38.62-5.36,38.62C403.31,349.9,416.55,354,416.55,354Z" transform="translate(-155 -206)"/><path class="cls-8" d="M416.55,354c14.84-26.76,8.8-61.91,7.75-70.8a11.74,11.74,0,0,0-1.08-3.19c0,.44-.44,28.75-2.46,37.89s-5.27,18.89-11.15,20.19-11.76-1.76-14.95-6.74C403.31,349.9,416.55,354,416.55,354Z" transform="translate(-155 -206)"/><path class="cls-7" d="M385.07,227.18c-2.4,2.32-12.79,8.76-14.3,9.38a2.29,2.29,0,0,1-1.94-.59c-.7,0-5.27.08-7.75-1-1.36-.6-1.29-2.38-.88-4.26-3.29-.8-9.61-5.57-9.4-10,.23-4.78,5.86-5,5.86-5,.25-5.49,5.95-4.47,5.95-4.47.35-2.39,5.13-3.35,5.13-3.35.54-2,3.65-2.31,5.47-1.47s12.46,12.7,12.89,14.84S385.07,227.18,385.07,227.18Z" transform="translate(-155 -206)"/><path class="cls-8" d="M368.76,228.25a2.22,2.22,0,0,1-1.82,3.06c.52-.35.51-1.52.4-2.53a5.65,5.65,0,0,0-.26-1.52h0a3.94,3.94,0,0,0-2.13-2.52c-2.24-1-3.29-.37-3.29-.37l-4.35-5.69a33,33,0,0,1,5.31,4.47,5.71,5.71,0,0,1,5.91,4.17,2.07,2.07,0,0,0,2-1.33,4.85,4.85,0,0,0-.72-3.94l-6.05-7.74s8.34,7.46,8.45,10.3A3.3,3.3,0,0,1,368.76,228.25Z" transform="translate(-155 -206)"/><path class="cls-8" d="M370.1,212.05s5.42,6.22,6.11,7.9a2.94,2.94,0,0,1-2,3.94,2.7,2.7,0,0,1-2.27-.37l-.05,1.92s5.62.92,5.7-4C377.6,219,370.1,212.05,370.1,212.05Z" transform="translate(-155 -206)"/><path class="cls-8" d="M377.24,220.33a3.46,3.46,0,0,0,3,.77c1.66-.45,2-1.46,1.66-2.4a1.68,1.68,0,0,1,.09,2.22c-1.17,1.69-3.93,1.32-4.8,1.09Z" transform="translate(-155 -206)"/><path class="cls-8" d="M382.92,229.4a5.94,5.94,0,0,0,3.38-2l-.9-1.14A12.74,12.74,0,0,1,382.92,229.4Z" transform="translate(-155 -206)"/><path class="cls-8" d="M370.19,236.61a12,12,0,0,0,4.1-1.06,6.71,6.71,0,0,1-3.24,2Z" transform="translate(-155 -206)"/><path class="cls-8" d="M400,292.73s7.82-1.09,10.49-3.12c0,0-2.86,6.15-11.39,6.38Z" transform="translate(-155 -206)"/><path class="cls-4" d="M220.69,602c3.15,2.15,1.7,2.64,4.81,4.18s10.94,7.42,11.43,7.78l0,0c20.7,20.09,55.59,51.36,74.5,53.73,17.82,2.24,44.38-43.46,61.35-77h0c.18-.25,7.1-9.57,17.43-6.82s49,35.88,66.8,44.26c0,0-23.79,1.11-31.57,10.23S396,656.23,392.08,657.67s-6-.17-9.64,2-9.19,4.92-9.19,4.92c-.15,10.16,4,19,12.11,27.77a42.84,42.84,0,0,1,6.62-2.55c4.5-1.22,14-3.5,15.68-6.35S468,669.38,468,669.38s45-8.17,48.55-27.71-88-107.38-88-107.38l-7.07-28.16-33,5h0l-60.26,4.18S317.89,540.61,315,563.45c-1.95,15.29-13,51.61-13,51.61s-10.2-9.58-30-17.34c-5.07-2-10.29-4.15-15.26-6.27h0s-7.52-3.45-10.14-6.78-4.22-2-7.06-2.83-5.23-3.92-7.13-3.6a3.66,3.66,0,0,0-2.45,1.18c-4.83,4.16-7,6.89-10.22,17.05C219.68,596.47,217.53,599.89,220.69,602Z" transform="translate(-155 -206)"/><path class="cls-9" d="M274.6,607.76l-.69,1c1.4.83,2.92,1.79,4.49,2.87l.77-.93C277.57,609.58,276,608.6,274.6,607.76Z" transform="translate(-155 -206)"/><path class="cls-9" d="M266.32,603.67l-.6,1c1.36.65,2.67,1.27,3.9,1.81l1,.48.6-1c-.36-.17-.72-.34-1.07-.49C269,604.92,267.67,604.32,266.32,603.67Z" transform="translate(-155 -206)"/><path class="cls-9" d="M257.53,600.5c1.63.88,3.25,1.73,4.81,2.52l.62-1c-1.55-.79-3.16-1.63-4.79-2.5Z" transform="translate(-155 -206)"/><path class="cls-9" d="M281.41,613.76c1.33,1,2.71,2,4.22,3.23l.84-.88c-1.53-1.21-2.92-2.27-4.26-3.26Z" transform="translate(-155 -206)"/><path class="cls-9" d="M296.32,624.15l-.84.87a35.5,35.5,0,0,0,3.91,2.87,4.38,4.38,0,0,0,.61.31l.54-1.05-.46-.24A35,35,0,0,1,296.32,624.15Z" transform="translate(-155 -206)"/><path class="cls-9" d="M303.62,627l.62,1a12.61,12.61,0,0,0,4.06-3.75l-1.05-.66A11.41,11.41,0,0,1,303.62,627Z" transform="translate(-155 -206)"/><path class="cls-9" d="M289.35,618.43l-.84.87c1.2,1,2.36,1.93,3.44,2.83l.67.55.85-.87-.66-.54C291.72,620.37,290.56,619.41,289.35,618.43Z" transform="translate(-155 -206)"/><path class="cls-9" d="M249.52,596c1.52.89,3.1,1.79,4.71,2.69l.66-1c-1.6-.89-3.17-1.79-4.68-2.67Z" transform="translate(-155 -206)"/><path class="cls-9" d="M227.43,583.88c-.32.34-.64.69-1,1,1,.12,2.46.34,4.05.68l.29-1.13C229.55,584.2,228.37,584,227.43,583.88Z" transform="translate(-155 -206)"/><path class="cls-9" d="M234.57,585.48l-.44,1.1a13.05,13.05,0,0,1,4.25,2.17l.29.24.85-.87-.26-.22A14.47,14.47,0,0,0,234.57,585.48Z" transform="translate(-155 -206)"/><path class="cls-9" d="M242.49,590.25l-.76.94c1.3.87,2.84,1.84,4.57,2.9l.71-1C245.29,592.07,243.77,591.11,242.49,590.25Z" transform="translate(-155 -206)"/><path class="cls-9" d="M326.25,554.26l1.24.3c.46-1.63.94-3.27,1.43-4.89l-1.23-.31C327.2,551,326.72,552.63,326.25,554.26Z" transform="translate(-155 -206)"/><path class="cls-9" d="M328.71,546l1.23.31q.75-2.46,1.5-4.86l-1.22-.33Q329.45,543.52,328.71,546Z" transform="translate(-155 -206)"/><path class="cls-9" d="M321.8,570.92l1.24.25c.39-1.59.81-3.24,1.24-4.92L323,566C322.6,567.66,322.19,569.33,321.8,570.92Z" transform="translate(-155 -206)"/><path class="cls-9" d="M323.94,562.57l1.24.27c.43-1.59.88-3.24,1.34-4.9l-1.23-.29C324.82,559.32,324.37,561,323.94,562.57Z" transform="translate(-155 -206)"/><path class="cls-9" d="M331.29,537.73l1.23.33c.53-1.65,1.06-3.27,1.58-4.84l-1.22-.34C332.36,534.46,331.82,536.08,331.29,537.73Z" transform="translate(-155 -206)"/><path class="cls-9" d="M309.16,620.61l1.13.54a49.39,49.39,0,0,0,2.31-4.66l-1.19-.43A48.29,48.29,0,0,1,309.16,620.61Z" transform="translate(-155 -206)"/><path class="cls-9" d="M336.91,521.36l1.21.37c.64-1.74,1.25-3.34,1.82-4.77l-1.2-.4C338.17,518,337.56,519.61,336.91,521.36Z" transform="translate(-155 -206)"/><path class="cls-9" d="M334,529.52l1.22.35c.57-1.66,1.14-3.29,1.68-4.82l-1.21-.36C335.15,526.23,334.58,527.85,334,529.52Z" transform="translate(-155 -206)"/><path class="cls-9" d="M312.73,612.8l1.21.38c.57-1.54,1.13-3.18,1.65-4.86l-1.23-.32C313.85,609.66,313.3,611.28,312.73,612.8Z" transform="translate(-155 -206)"/><path class="cls-9" d="M319.9,579.33l1.25.22c.32-1.55.68-3.22,1.08-5l-1.25-.24C320.58,576.1,320.22,577.78,319.9,579.33Z" transform="translate(-155 -206)"/><path class="cls-9" d="M315.32,604.63l1.24.28c.44-1.62.84-3.29,1.2-5l-1.25-.23C316.15,601.38,315.75,603,315.32,604.63Z" transform="translate(-155 -206)"/><path class="cls-9" d="M317.2,596.29l1.26.2c.3-1.68.57-3.37.8-5l-1.27-.15C317.77,593,317.5,594.64,317.2,596.29Z" transform="translate(-155 -206)"/><path class="cls-9" d="M318.42,587.83l1.26.14c.2-1.49.47-3.16.8-5l-1.26-.19C318.89,584.63,318.62,586.33,318.42,587.83Z" transform="translate(-155 -206)"/><path class="cls-9" d="M396.34,578.16a19.42,19.42,0,0,0-5.66.72l.38,1.12a17.69,17.69,0,0,1,5.25-.67Z" transform="translate(-155 -206)"/><path class="cls-9" d="M404.9,581.62l.64-1c-.51-.27-1-.5-1.44-.69a22.71,22.71,0,0,0-3.84-1.27l-.31,1.14a20.73,20.73,0,0,1,3.6,1.18C404,581.15,404.43,581.37,404.9,581.62Z" transform="translate(-155 -206)"/><path class="cls-9" d="M408.22,656.21l.56,1c1.67-.75,3.33-1.53,5-2.31l-.59-1C411.53,654.68,409.87,655.45,408.22,656.21Z" transform="translate(-155 -206)"/><path class="cls-9" d="M416.51,652.26l.61,1c1.72-.85,3.35-1.69,4.84-2.49l-.65-1C419.83,650.57,418.22,651.41,416.51,652.26Z" transform="translate(-155 -206)"/><path class="cls-9" d="M424.57,648l.68,1c1.92-1.11,3.46-2.1,4.61-2.93l-.8-.91A52,52,0,0,1,424.57,648Z" transform="translate(-155 -206)"/><path class="cls-9" d="M376.3,670.94c1.15-.73,2.27-1.41,3.34-2l-.67-1c-1,.54-1.93,1.13-2.94,1.76Z" transform="translate(-155 -206)"/><path class="cls-9" d="M382.33,666.16l.59,1a29.63,29.63,0,0,1,5-2l-.37-1.12A31.53,31.53,0,0,0,382.33,666.16Z" transform="translate(-155 -206)"/><path class="cls-9" d="M415.44,588.71c1.29,1,2.7,2.09,4.2,3.28l.84-.88c-1.51-1.2-2.93-2.31-4.23-3.29Z" transform="translate(-155 -206)"/><path class="cls-9" d="M391.16,663.12l.43,1.1c1.47-.48,3.21-1.11,5.18-1.87l-.5-1.08C394.33,662,392.6,662.65,391.16,663.12Z" transform="translate(-155 -206)"/><path class="cls-9" d="M399.77,659.87l.53,1.06c1.61-.66,3.31-1.38,5-2.14l-.55-1C403.07,658.49,401.38,659.21,399.77,659.87Z" transform="translate(-155 -206)"/><path class="cls-9" d="M386.29,582.08c.42-.25.88-.51,1.37-.76l-.61-1a19.56,19.56,0,0,0-2.32,1.36Z" transform="translate(-155 -206)"/><path class="cls-9" d="M408.81,582.53l-.73,1c1.3.84,2.78,1.85,4.4,3l.79-.91C411.63,584.4,410.14,583.37,408.81,582.53Z" transform="translate(-155 -206)"/><path class="cls-9" d="M463.83,634.31a16.88,16.88,0,0,1-4.45,1.5l.34,1.13a17.17,17.17,0,0,0,4.87-1.69l.46-.34-.84-.88A3.37,3.37,0,0,1,463.83,634.31Z" transform="translate(-155 -206)"/><path class="cls-9" d="M451.39,616.14l-.8.91c1.71,1.25,3.17,2.25,4.46,3.07l.73-1C454.51,618.36,453.07,617.37,451.39,616.14Z" transform="translate(-155 -206)"/><path class="cls-9" d="M459,620.93l0,0-.54,1.05,0,0a21,21,0,0,1,4.51,2.55l.82-.9A22.27,22.27,0,0,0,459,620.93Z" transform="translate(-155 -206)"/><path class="cls-9" d="M466.45,626.41l-1.1.59a5.81,5.81,0,0,1,.84,2,4.76,4.76,0,0,1-.14,2.37l1.23.32a5.78,5.78,0,0,0,.17-2.89A6.92,6.92,0,0,0,466.45,626.41Z" transform="translate(-155 -206)"/><path class="cls-9" d="M453,637.27l-2.65.57.29,1.14,2.65-.58,2.74-.6-.3-1.13Z" transform="translate(-155 -206)"/><path class="cls-9" d="M441.2,640l.37,1.11c1.58-.43,3.32-.87,5.31-1.33l-.31-1.13C444.55,639.16,442.8,639.6,441.2,640Z" transform="translate(-155 -206)"/><path class="cls-9" d="M432.35,643.14l.6,1a40.69,40.69,0,0,1,5-1.94l-.43-1.1A41.82,41.82,0,0,0,432.35,643.14Z" transform="translate(-155 -206)"/><path class="cls-9" d="M433.25,601.57l-2.91-2.42-.86.87,2.91,2.41,1.19,1,.86-.87Z" transform="translate(-155 -206)"/><path class="cls-9" d="M436.42,605.77c1.39,1.16,2.77,2.29,4.12,3.39l.85-.87q-2-1.65-4.11-3.38Z" transform="translate(-155 -206)"/><path class="cls-9" d="M448.44,613.91c-1.28-1-2.65-2.06-4.18-3.3l-.85.88c1.55,1.24,2.92,2.32,4.21,3.32Z" transform="translate(-155 -206)"/><path class="cls-9" d="M427.5,596.8l-4.14-3.38-.84.88c1.36,1.1,2.73,2.23,4.12,3.37Z" transform="translate(-155 -206)"/><path class="cls-13" d="M433.72,532.31s-60.4,18-93,9.93c-2.43-.61-22.27-4.28-22.27-4.28s11.2-38.85,8.07-64.65c-.82-6.85-2.59-20.35-7.88-32.6-1.89-4.39-3.83-8.85-5.73-13.19C307.22,414.67,302,403,299.62,397.83a27.73,27.73,0,0,1,9.73-4h.18a177,177,0,0,0,19.5-4.12h0c9.39-2.62,19.55-6.41,28.34-11.95l8.17-4.15,8.57-4.37s10.55,3.48,21.51,17.79a67.41,67.41,0,0,1-9.1,8.34,51.88,51.88,0,0,0,8.86,4.07,33,33,0,0,0,5.94-3.93c6.94,11.76,13.3,28.52,16.42,52.24,2.81,21.54,7.76,46.68,11.41,63.92C431.78,524,433.72,532.31,433.72,532.31Z" transform="translate(-155 -206)"/><path class="cls-4" d="M345.21,398.76c-11.19-.87-13.76-5.75-16.16-9.08,9.39-2.62,19.55-6.41,28.34-11.95l5.36-2.75c1.53,0,5.31,2.58,5.31,7.75C368.06,389.69,360.1,399.93,345.21,398.76Z" transform="translate(-155 -206)"/><path class="cls-5" d="M381,413.56l19.65-8s15.27,21,2.82,25.08C390.12,435,381,413.56,381,413.56Z" transform="translate(-155 -206)"/><path class="cls-4" d="M360,326.79s8.25-5.71,4.87-17.17c0,0-2.77,4.35-5.28,4.78,0,0,6.37-15.78-13.12-24.57,0,0,2.28,8.69,0,11.58,0,0-5.15-10.05-12.78-12.12,0,0,1.15,17.6-10.78,21.16-8.52,2.53-19.52,11.57-22.55,26.43,0,0-4.94-1.31-6.79.47,0,0,6.34,1,7.21,4.67,0,0-2.66-1.23-4.66.32,0,0,4.48.85,5.17,4.05s17.64,27.68,27.87,31.76S360,326.79,360,326.79Z" transform="translate(-155 -206)"/><path class="cls-7" d="M333.59,381.86,335,389a4.93,4.93,0,0,0,3.78,3.78c16.91,4,24.37-5.58,25.21-9.3-2.18-.8-40.92-15.13-47.27-28.71C316.68,354.81,320.77,373.07,333.59,381.86Z" transform="translate(-155 -206)"/><path class="cls-7" d="M364.94,341.82a18.77,18.77,0,0,1,3.12,5.8,18,18,0,0,1,.91,5.54l.07,12.56A11,11,0,0,1,361,376.07c-5.54,1.73-13.3,3.2-21.25,1.62-15-3-22.19-19.6-22.19-19.6s-6.25-17.23,6.33-29.12c8.72-8.23,20.42-9.84,26.79-10.06a7.43,7.43,0,0,1,6.62,3.39l4.82,7.87a18.56,18.56,0,0,1,1,1.91,18.11,18.11,0,0,1,1.69,6.95Z" transform="translate(-155 -206)"/><path class="cls-4" d="M347.12,333.82s-11.91-4.6-14.88,4.45l1.83,1.39s3.95-6.92,13.44-3.44Z" transform="translate(-155 -206)"/><path class="cls-8" d="M364.94,341.82a18.77,18.77,0,0,1,3.12,5.8c-2.36-.54-6.51-.21-13.59,3.4,0,0,2.74-4.42,6.71-5.92a1.51,1.51,0,0,0,.68-2.45l-4.93-5.46a4.5,4.5,0,0,1,1.77-2.62,32,32,0,0,1,4.44-2.49,18.11,18.11,0,0,1,1.69,6.95Z" transform="translate(-155 -206)"/><path class="cls-4" d="M362,330.33a23.84,23.84,0,0,0-4.84,2.81l.61,2.14a17,17,0,0,1,5.15-2.77,1.24,1.24,0,0,0,.9-1.66v0A1.4,1.4,0,0,0,362,330.33Z" transform="translate(-155 -206)"/><path class="cls-12" d="M365.7,352.81l-21.23,5.56s6.68,9.26,17.45,5.1C370.38,360.21,365.7,352.81,365.7,352.81Z" transform="translate(-155 -206)"/><path class="cls-8" d="M359.64,376.17s-13.32,3.1-27.07-10.61c0,0-.61,7.08,6.78,14.31s24.6,3.65,24.6,3.65Z" transform="translate(-155 -206)"/><path class="cls-7" d="M321.64,353.46s-6.73-5.34-11.07-.3,5.38,19.25,12.32,13.45S321.64,353.46,321.64,353.46Z" transform="translate(-155 -206)"/><path class="cls-4" d="M347.12,340.66s-2.63-2.91-5.91-1.76c-4.78,1.69-4.11,5.71-4.11,5.71S339.23,337.12,347.12,340.66Z" transform="translate(-155 -206)"/><path class="cls-4" d="M358.85,339.14s1.75-4.75,5.56-1.11C364.41,338,361,336,358.85,339.14Z" transform="translate(-155 -206)"/><path class="cls-4" d="M319,334.12s5.17,5.71,1,11.67l4.34,9.14L319.86,356l-3.74-5.07-2.89-13.11S316.72,331.82,319,334.12Z" transform="translate(-155 -206)"/><path class="cls-14" d="M428.27,343.16s-.54,2.49-1.67,6.44c-3.65,12.75-13.47,40.73-31.2,49.81a51.88,51.88,0,0,1-8.86-4.07c-7.47-4.28-16.83-12-16-23.7,0,0,15.21-23.1,21.66-39.35.6-1.48,1.11-2.91,1.53-4.27L422,340.42Z" transform="translate(-155 -206)"/><path class="cls-4" d="M428.27,343.16s-.54,2.49-1.67,6.44c-6.63-4.7-27.71-14.31-34.38-17.31.6-1.48,1.11-2.91,1.53-4.27L422,340.42Z" transform="translate(-155 -206)"/><path class="cls-5" d="M428.28,343.16s-8,36.75-26.94,52.32a84.85,84.85,0,0,0-5.7-8.48c14.41-15.7,23.24-37.79,26.38-46.58Z" transform="translate(-155 -206)"/><path class="cls-15" d="M321.48,418.06a44.57,44.57,0,0,1-1.18,5.13l-1.68,17.52-1.91,16.86-.54,4.88c-3.22,4.12-14.1,4.49-24.4,3.81h0a203,203,0,0,1-21-2.62s.27-1.9.89-5.15a217.53,217.53,0,0,1,11.41-39.72c4.56-11.29,11.08-17.53,16.51-20.93a27.73,27.73,0,0,1,9.73-4h.18C323.52,395,322.87,410,321.48,418.06Z" transform="translate(-155 -206)"/><path class="cls-4" d="M316.71,457.57l-.54,4.88c-3.22,4.12-14.1,4.49-24.4,3.81h0a203,203,0,0,1-21-2.62s.27-1.9.89-5.15a134.88,134.88,0,0,0,24.79,2.62C307.21,461.23,313.45,458.9,316.71,457.57Z" transform="translate(-155 -206)"/><path class="cls-4" d="M359.79,376.5s22.09-3.08,36.11,8.33,28,35.35,19.48,49.71l3.43,20.8s23.1-33.16-1.68-65.29c-16.68-21.62-38-22.15-48.76-20.69a11.11,11.11,0,0,1-7.32,6.5Z" transform="translate(-155 -206)"/><path class="cls-4" d="M306.53,394.54s6.33-13.21,18.11-11.68,47.08,45.35,39.61,77.58-38,35.66-38,35.66-5.9-8.18.73-15.79c0,0,20.05-4.5,25.46-25.48S330.6,391.28,320.58,390c-3.6-.47-6.32,3-6.32,3S310,394.07,306.53,394.54Z" transform="translate(-155 -206)"/><path class="cls-5" d="M433.72,532.32s-60.41,18-93,9.91c-2.43-.6-22.28-4.27-22.28-4.27s11.21-38.86,8.08-64.66c-.82-6.84-2.59-20.34-7.87-32.6l-2.46,21.76c-3.22,4.1-14.1,4.49-24.39,3.8h0s16.43-8,18.2-25.95a47.92,47.92,0,0,1,2.91-12.78c3.16-8.13,7.51-11.11,7.51-11.11s.4.59,1.07,1.65c3.2,5,12.48,20.44,13.57,32.88C336.36,466,341.57,498.05,367,517c14.14,10.56,61.39,8.9,62.14-5,0-.15,0-.29,0-.42C431.78,524,433.72,532.32,433.72,532.32Z" transform="translate(-155 -206)"/></svg>