<?xml version="1.0" encoding="utf-8"?>
<!-- Generator: Adobe Illustrator 26.0.1, SVG Export Plug-In . SVG Version: 6.00 Build 0)  -->
<svg version="1.1" id="Layer_1" xmlns="http://www.w3.org/2000/svg" xmlns:xlink="http://www.w3.org/1999/xlink" x="0px" y="0px"
	 viewBox="0 0 1000 1000" style="enable-background:new 0 0 1000 1000;" xml:space="preserve">
<style type="text/css">
	.st0{fill:#F5F5F5;}
	.st1{fill:#E1E1E1;}
	.st2{fill:#ECECEC;}
	.st3{fill:#FAFAFA;}
	.st4{fill:#1A2E35;}
	.st5{fill:#375A64;}
	.st6{fill:#FF735D;}
	.st7{opacity:0.3;}
	.st8{fill:#FFFFFF;}
	.st9{fill:#FFBF9D;}
	.st10{fill:#FF9A6C;}
</style>
<g>
	<g>
		<g>
			<g>
				<path class="st0" d="M710.37,456.7h112.4h30.09l-23.21,16.75v32.95c0,3.8-3.08,6.88-6.88,6.88h-112.4
					c-3.8,0-6.88-3.08-6.88-6.88v-42.82C703.49,459.78,706.57,456.7,710.37,456.7z"/>
			</g>
		</g>
	</g>
	<g>
		<g>
			<g>
				<g>
					<path class="st1" d="M716.32,479.99c0,0.14,21.49,0.25,48,0.25c26.51,0,48-0.11,48-0.25c0-0.14-21.49-0.25-48-0.25
						C737.81,479.74,716.32,479.85,716.32,479.99z"/>
				</g>
			</g>
		</g>
	</g>
	<g>
		<g>
			<g>
				<g>
					<path class="st1" d="M716.32,492.64c0,0.14,21.49,0.25,48,0.25c26.51,0,48-0.11,48-0.25c0-0.14-21.49-0.25-48-0.25
						C737.81,492.39,716.32,492.51,716.32,492.64z"/>
				</g>
			</g>
		</g>
	</g>
</g>
<g>
	<g>
		<g>
			<g>
				<g>
					<g>
						<rect x="487.29" y="335.1" class="st1" width="6.67" height="22.34"/>
					</g>
				</g>
				<g>
					<g>
						<rect x="431.59" y="331.87" class="st1" width="6.67" height="25.57"/>
					</g>
				</g>
				<g>
					<g>
						<rect x="445.52" y="326.54" class="st1" width="6.67" height="30.9"/>
					</g>
				</g>
				<g>
					<g>
						<rect x="459.44" y="328.23" class="st1" width="6.67" height="29.21"/>
					</g>
				</g>
				<g>
					<g>
						<rect x="473.37" y="318.35" class="st1" width="6.67" height="39.09"/>
					</g>
				</g>
				<g>
					<g>
						<rect x="501.22" y="318.54" class="st1" width="6.67" height="38.9"/>
					</g>
				</g>
				<g>
					<g>
						<rect x="515.14" y="331.32" class="st1" width="6.67" height="26.12"/>
					</g>
				</g>
				<g>
					<g>
						<rect x="529.07" y="320.25" class="st1" width="6.67" height="37.19"/>
					</g>
				</g>
				<g>
					<g>
						<rect x="542.99" y="311.88" class="st1" width="6.67" height="45.56"/>
					</g>
				</g>
				<g>
					<g>
						<rect x="556.91" y="320.06" class="st1" width="6.67" height="37.38"/>
					</g>
				</g>
			</g>
		</g>
	</g>
</g>
<g>
	<g>
		<g>
			<g>
				<path class="st2" d="M739.28,355.37l55.15-8.43c4.62,30.25-16.47,58.95-46.72,63.57c-30.25,4.62-58.95-16.47-63.57-46.72
					c-4.62-30.25,16.47-58.95,46.72-63.57c4.82-0.74,9.71-0.84,14.55-0.3L739.28,355.37z"/>
			</g>
		</g>
	</g>
	<g>
		<g>
			<g>
				<path class="st1" d="M757.18,300.1l-6.7,42.75l41.96-7.88C792.44,334.96,786.27,311.01,757.18,300.1z"/>
			</g>
		</g>
	</g>
</g>
<g>
	<g>
		<g>
			<path class="st0" d="M176.2,459.07c-0.24-15.14,11.83-27.66,26.9-27.91c15.08-0.24,27.54,11.88,27.78,27.02
				c0.24,15.14-11.83,27.66-26.9,27.91C188.91,486.33,176.45,474.21,176.2,459.07z M216.62,458.41
				c-0.12-7.24-6.07-13.04-13.28-12.92c-7.21,0.12-12.98,6.1-12.86,13.34c0.12,7.24,6.07,13.04,13.28,12.92
				C210.96,471.64,216.73,465.66,216.62,458.41z"/>
		</g>
	</g>
	<g>
		<g>
			<path class="st1" d="M176.2,459.07c-0.24-15.14,11.83-27.66,26.9-27.91l0.23,14.33c-7.21,0.12-12.98,6.1-12.86,13.34
				c0.12,7.24,6.07,13.04,13.28,12.92l0.23,14.33C188.91,486.33,176.45,474.21,176.2,459.07z"/>
		</g>
	</g>
	<g>
		<g>
			<path class="st2" d="M200.65,428.95c17.64-0.28,31.71,13.4,31.99,31.12l-16.69,0.27c-0.14-8.47-6.58-13.81-15.01-13.67
				L200.65,428.95z"/>
		</g>
	</g>
</g>
<g>
	<g>
		<g>
			<g>
				<g>
					<g>
						<g>
							<rect x="319.09" y="555.51" class="st0" width="34.76" height="41.32"/>
						</g>
					</g>
				</g>
				<g>
					<g>
						<g>
							<rect x="163.22" y="552.81" class="st1" width="157.07" height="46.61"/>
						</g>
					</g>
				</g>
				<g>
					<g>
						<g>
							<path class="st1" d="M354.9,556.73h-38.82v-3.92h38.82c1.08,0,1.96,0.88,1.96,1.96l0,0
								C356.86,555.86,355.98,556.73,354.9,556.73z"/>
						</g>
					</g>
				</g>
				<g>
					<g>
						<g>
							<path class="st1" d="M354.9,599.42h-38.82v-3.92h38.82c1.08,0,1.96,0.88,1.96,1.96l0,0
								C356.86,598.55,355.98,599.42,354.9,599.42z"/>
						</g>
					</g>
				</g>
				<g>
					<g>
						<g>
							<rect x="289.38" y="552.81" class="st2" width="18.56" height="46.61"/>
						</g>
					</g>
				</g>
				<g>
					<g>
						<g>
							<rect x="178.16" y="553.33" class="st2" width="18.56" height="46.61"/>
						</g>
					</g>
				</g>
				<g>
					<g>
						<g>
							<g>
								<path class="st1" d="M353.84,562.34c0,0.11-7.52,0.21-16.8,0.21c-9.28,0-16.8-0.09-16.8-0.21c0-0.11,7.52-0.21,16.8-0.21
									C346.32,562.14,353.84,562.23,353.84,562.34z"/>
							</g>
						</g>
					</g>
				</g>
				<g>
					<g>
						<g>
							<g>
								<path class="st1" d="M353.84,568.54c0,0.11-7.52,0.21-16.8,0.21c-9.28,0-16.8-0.09-16.8-0.21c0-0.11,7.52-0.21,16.8-0.21
									C346.32,568.33,353.84,568.42,353.84,568.54z"/>
							</g>
						</g>
					</g>
				</g>
				<g>
					<g>
						<g>
							<g>
								<path class="st1" d="M353.84,576.17c0,0.11-7.52,0.21-16.8,0.21c-9.28,0-16.8-0.09-16.8-0.21c0-0.11,7.52-0.21,16.8-0.21
									C346.32,575.96,353.84,576.05,353.84,576.17z"/>
							</g>
						</g>
					</g>
				</g>
				<g>
					<g>
						<g>
							<g>
								<path class="st1" d="M353.84,583.8c0,0.11-7.52,0.21-16.8,0.21c-9.28,0-16.8-0.09-16.8-0.21c0-0.11,7.52-0.21,16.8-0.21
									C346.32,583.59,353.84,583.68,353.84,583.8z"/>
							</g>
						</g>
					</g>
				</g>
				<g>
					<g>
						<g>
							<g>
								<path class="st1" d="M353.84,591.42c0,0.11-7.52,0.21-16.8,0.21c-9.28,0-16.8-0.09-16.8-0.21c0-0.11,7.52-0.21,16.8-0.21
									C346.32,591.22,353.84,591.31,353.84,591.42z"/>
							</g>
						</g>
					</g>
				</g>
			</g>
			<g>
				<g>
					<g>
						<rect x="208.74" y="571.97" class="st2" width="70.66" height="8.39"/>
					</g>
				</g>
			</g>
		</g>
		<g>
			<g>
				<g>
					<g>
						<rect x="318.2" y="600.34" class="st3" width="35.29" height="25.18"/>
					</g>
				</g>
			</g>
			<g>
				<g>
					<g>
						<rect x="168.42" y="599.42" class="st0" width="150.18" height="27"/>
					</g>
				</g>
			</g>
			<g>
				<g>
					<g>
						<path class="st0" d="M317.5,601.25h37.93c0.5,0,0.91-0.41,0.91-0.91l0,0c0-0.5-0.41-0.91-0.91-0.91H317.5V601.25z"/>
					</g>
				</g>
			</g>
			<g>
				<g>
					<g>
						<path class="st0" d="M317.5,626.43h38.42c0.23,0,0.42-0.19,0.42-0.42v-0.99c0-0.23-0.19-0.42-0.42-0.42H317.5V626.43z"/>
					</g>
				</g>
			</g>
			<g>
				<g>
					<g>
						<g>
							<path class="st1" d="M353.49,605.12c0,0.11-7.81,0.21-17.45,0.21c-9.64,0-17.45-0.09-17.45-0.21c0-0.11,7.81-0.21,17.45-0.21
								C345.68,604.91,353.49,605.01,353.49,605.12z"/>
						</g>
					</g>
				</g>
			</g>
			<g>
				<g>
					<g>
						<g>
							<path class="st1" d="M353.49,609.88c0,0.11-7.81,0.21-17.45,0.21c-9.64,0-17.45-0.09-17.45-0.21c0-0.11,7.81-0.21,17.45-0.21
								C345.68,609.68,353.49,609.77,353.49,609.88z"/>
						</g>
					</g>
				</g>
			</g>
			<g>
				<g>
					<g>
						<g>
							<path class="st1" d="M353.49,614.65c0,0.11-7.81,0.21-17.45,0.21c-9.64,0-17.45-0.09-17.45-0.21c0-0.11,7.81-0.21,17.45-0.21
								C345.68,614.44,353.49,614.53,353.49,614.65z"/>
						</g>
					</g>
				</g>
			</g>
			<g>
				<g>
					<g>
						<g>
							<path class="st1" d="M353.49,619.41c0,0.11-7.81,0.21-17.45,0.21c-9.64,0-17.45-0.09-17.45-0.21c0-0.11,7.81-0.21,17.45-0.21
								C345.68,619.2,353.49,619.29,353.49,619.41z"/>
						</g>
					</g>
				</g>
			</g>
		</g>
		<g>
			<g>
				<g>
					<g>
						<rect x="322.82" y="628.83" class="st2" width="36.02" height="68.25"/>
					</g>
				</g>
			</g>
			<g>
				<g>
					<g>
						<rect x="153.75" y="626.43" class="st1" width="169.07" height="74"/>
					</g>
				</g>
			</g>
			<g>
				<g>
					<g>
						<path class="st1" d="M361.66,700.42H318.2v-4.8h43.46c1.33,0,2.4,1.07,2.4,2.4l0,0C364.06,699.35,362.99,700.42,361.66,700.42
							z"/>
					</g>
				</g>
			</g>
			<g>
				<g>
					<g>
						<path class="st1" d="M362.96,631.23H318.2v-4.8h44.76c0.61,0,1.1,0.49,1.1,1.1v2.6C364.06,630.73,363.57,631.23,362.96,631.23
							z"/>
					</g>
				</g>
			</g>
			<g>
				<g>
					<g>
						<g>
							<path class="st1" d="M358.84,637.97c0,0.11-8.06,0.21-18.01,0.21c-9.95,0-18.01-0.09-18.01-0.21c0-0.11,8.06-0.21,18.01-0.21
								C350.78,637.77,358.84,637.86,358.84,637.97z"/>
						</g>
					</g>
				</g>
			</g>
			<g>
				<g>
					<g>
						<g>
							<path class="st1" d="M358.84,646.73c0,0.11-8.06,0.21-18.01,0.21c-9.95,0-18.01-0.09-18.01-0.21c0-0.11,8.06-0.21,18.01-0.21
								C350.78,646.52,358.84,646.61,358.84,646.73z"/>
						</g>
					</g>
				</g>
			</g>
			<g>
				<g>
					<g>
						<g>
							<path class="st1" d="M358.84,655.48c0,0.11-8.06,0.21-18.01,0.21c-9.95,0-18.01-0.09-18.01-0.21c0-0.11,8.06-0.21,18.01-0.21
								C350.78,655.27,358.84,655.37,358.84,655.48z"/>
						</g>
					</g>
				</g>
			</g>
			<g>
				<g>
					<g>
						<g>
							<path class="st1" d="M358.84,664.23c0,0.11-8.06,0.21-18.01,0.21c-9.95,0-18.01-0.09-18.01-0.21c0-0.11,8.06-0.21,18.01-0.21
								C350.78,664.03,358.84,664.12,358.84,664.23z"/>
						</g>
					</g>
				</g>
			</g>
			<g>
				<g>
					<g>
						<g>
							<path class="st1" d="M358.84,672.99c0,0.11-8.06,0.21-18.01,0.21c-9.95,0-18.01-0.09-18.01-0.21c0-0.11,8.06-0.21,18.01-0.21
								C350.78,672.78,358.84,672.87,358.84,672.99z"/>
						</g>
					</g>
				</g>
			</g>
			<g>
				<g>
					<g>
						<g>
							<path class="st1" d="M358.84,681.74c0,0.11-8.06,0.21-18.01,0.21c-9.95,0-18.01-0.09-18.01-0.21c0-0.11,8.06-0.21,18.01-0.21
								C350.78,681.53,358.84,681.63,358.84,681.74z"/>
						</g>
					</g>
				</g>
			</g>
			<g>
				<g>
					<g>
						<g>
							<path class="st1" d="M358.84,690.49c0,0.11-8.06,0.21-18.01,0.21c-9.95,0-18.01-0.09-18.01-0.21c0-0.11,8.06-0.21,18.01-0.21
								C350.78,690.29,358.84,690.38,358.84,690.49z"/>
						</g>
					</g>
				</g>
			</g>
		</g>
	</g>
	<g>
		<g>
			<path class="st2" d="M211.61,667.47v4.12c0,4.96-2.48,7.79-7.26,7.79c-4.78,0-7.26-2.83-7.26-7.79v-16.12
				c0-4.96,2.48-7.79,7.26-7.79c4.78,0,7.26,2.83,7.26,7.79v3.01H207v-3.32c0-2.21-0.97-3.05-2.52-3.05c-1.55,0-2.52,0.84-2.52,3.05
				v16.73c0,2.21,0.97,3.01,2.52,3.01c1.55,0,2.52-0.8,2.52-3.01v-4.43H211.61z"/>
		</g>
		<g>
			<path class="st2" d="M214.17,655.48c0-4.96,2.61-7.79,7.39-7.79c4.78,0,7.39,2.83,7.39,7.79v16.12c0,4.96-2.61,7.79-7.39,7.79
				c-4.78,0-7.39-2.83-7.39-7.79V655.48z M219.04,671.9c0,2.21,0.97,3.05,2.52,3.05c1.55,0,2.52-0.84,2.52-3.05v-16.73
				c0-2.21-0.97-3.05-2.52-3.05c-1.55,0-2.52,0.84-2.52,3.05V671.9z"/>
		</g>
		<g>
			<path class="st2" d="M232.1,648.04h4.87v26.56h8.01v4.43H232.1V648.04z"/>
		</g>
		<g>
			<path class="st2" d="M246.7,655.48c0-4.96,2.61-7.79,7.39-7.79s7.39,2.83,7.39,7.79v16.12c0,4.96-2.61,7.79-7.39,7.79
				s-7.39-2.83-7.39-7.79V655.48z M251.57,671.9c0,2.21,0.97,3.05,2.52,3.05s2.52-0.84,2.52-3.05v-16.73c0-2.21-0.97-3.05-2.52-3.05
				s-2.52,0.84-2.52,3.05V671.9z"/>
		</g>
		<g>
			<path class="st2" d="M269.28,648.04v23.91c0,2.21,0.97,3.01,2.52,3.01c1.55,0,2.52-0.8,2.52-3.01v-23.91h4.6v23.6
				c0,4.96-2.48,7.79-7.26,7.79c-4.78,0-7.26-2.83-7.26-7.79v-23.6H269.28z"/>
		</g>
		<g>
			<path class="st2" d="M292.43,679.03c-0.27-0.8-0.44-1.28-0.44-3.81v-4.87c0-2.88-0.97-3.94-3.19-3.94h-1.68v12.62h-4.87v-30.99
				h7.35c5.05,0,7.22,2.35,7.22,7.13v2.43c0,3.19-1.02,5.27-3.19,6.29c2.44,1.02,3.23,3.36,3.23,6.6v4.78
				c0,1.51,0.04,2.61,0.53,3.76H292.43z M287.12,652.47v9.52h1.9c1.82,0,2.92-0.8,2.92-3.28v-3.05c0-2.21-0.75-3.19-2.48-3.19
				H287.12z"/>
		</g>
	</g>
	<g>
		<g>
			<path class="st1" d="M210.55,610.06H207l0.19-0.92h8.15l-0.2,0.92h-3.54l-1.83,9.14h-1.05L210.55,610.06z"/>
		</g>
		<g>
			<path class="st1" d="M222.18,611.64l-5.52,8.54c-0.93,1.44-1.64,1.88-2.73,1.88c-0.7,0-1.42-0.24-1.8-0.68l0.55-0.75
				c0.33,0.34,0.76,0.55,1.34,0.55c0.65,0,1.15-0.3,1.74-1.22l0.53-0.8l-1.88-7.52h1.03l1.57,6.44l4.13-6.44H222.18z"/>
		</g>
		<g>
			<path class="st1" d="M230.59,614.77c0,2.6-1.81,4.5-4.28,4.5c-1.44,0-2.44-0.59-2.88-1.65l-0.86,4.37h-1.02l2.06-10.35h0.98
				l-0.24,1.21c0.72-0.8,1.73-1.26,2.95-1.26C229.22,611.58,230.59,612.79,230.59,614.77z M229.55,614.83
				c0-1.48-0.91-2.36-2.49-2.36c-1.88,0-3.26,1.48-3.26,3.55c0,1.48,0.91,2.34,2.49,2.34C228.17,618.37,229.55,616.89,229.55,614.83
				z"/>
		</g>
		<g>
			<path class="st1" d="M231.78,616.07c0-2.57,1.83-4.48,4.37-4.48c2.1,0,3.44,1.24,3.44,3.19c0,2.59-1.83,4.5-4.37,4.5
				C233.11,619.27,231.78,618.01,231.78,616.07z M238.56,614.83c0-1.48-0.91-2.36-2.49-2.36c-1.88,0-3.28,1.49-3.28,3.55
				c0,1.48,0.91,2.34,2.49,2.34C237.17,618.37,238.56,616.89,238.56,614.83z"/>
		</g>
		<g>
			<path class="st1" d="M249.37,611.64l-1.32,6.64c-0.53,2.67-1.94,3.78-4.4,3.78c-1.42,0-2.59-0.4-3.36-1.14l0.6-0.78
				c0.6,0.62,1.62,1.01,2.83,1.01c1.91,0,2.92-0.88,3.28-2.7l0.17-0.84c-0.72,0.81-1.74,1.3-3.02,1.3c-2,0-3.34-1.16-3.34-3.05
				c0-2.43,1.8-4.28,4.31-4.28c1.39,0,2.52,0.57,2.95,1.72l0.32-1.67H249.37z M247.64,614.67c0-1.38-0.93-2.2-2.5-2.2
				c-1.91,0-3.29,1.41-3.29,3.33c0,1.38,0.92,2.2,2.5,2.2C246.25,618.01,247.64,616.6,247.64,614.67z"/>
		</g>
		<g>
			<path class="st1" d="M256.03,611.58l-0.19,0.99c-0.1,0-0.17-0.02-0.29-0.02c-1.61,0-2.69,0.92-3.06,2.8l-0.76,3.84h-1.02
				l1.5-7.56h0.98l-0.26,1.38C253.6,612.03,254.6,611.58,256.03,611.58z"/>
		</g>
		<g>
			<path class="st1" d="M264.7,611.64l-1.51,7.56h-0.98l0.24-1.19c-0.72,0.79-1.72,1.26-2.95,1.26c-1.94,0-3.29-1.21-3.29-3.2
				c0-2.59,1.81-4.48,4.27-4.48c1.44,0,2.44,0.59,2.87,1.64l0.32-1.58H264.7z M263,614.83c0-1.48-0.91-2.36-2.49-2.36
				c-1.88,0-3.28,1.49-3.28,3.55c0,1.48,0.91,2.34,2.49,2.34C261.61,618.37,263,616.89,263,614.83z"/>
		</g>
		<g>
			<path class="st1" d="M274.51,614.77c0,2.6-1.81,4.5-4.28,4.5c-1.44,0-2.44-0.59-2.88-1.65l-0.86,4.37h-1.02l2.06-10.35h0.98
				l-0.24,1.21c0.72-0.8,1.73-1.26,2.95-1.26C273.15,611.58,274.51,612.79,274.51,614.77z M273.48,614.83
				c0-1.48-0.91-2.36-2.49-2.36c-1.88,0-3.26,1.48-3.26,3.55c0,1.48,0.91,2.34,2.49,2.34C272.1,618.37,273.48,616.89,273.48,614.83z
				"/>
		</g>
		<g>
			<path class="st1" d="M283.67,614.04c0,0.27-0.03,0.56-0.09,0.86l-0.86,4.3h-1.02l0.86-4.31c0.04-0.24,0.07-0.47,0.07-0.69
				c0-1.08-0.65-1.7-1.95-1.7c-1.61,0-2.72,0.88-3.08,2.64l-0.8,4.05h-1.02l2.13-10.67h1.02l-0.85,4.24
				c0.72-0.82,1.73-1.19,2.89-1.19C282.68,611.58,283.67,612.5,283.67,614.04z"/>
		</g>
		<g>
			<path class="st1" d="M293.22,611.64l-5.52,8.54c-0.93,1.44-1.64,1.88-2.73,1.88c-0.7,0-1.42-0.24-1.8-0.68l0.55-0.75
				c0.33,0.34,0.76,0.55,1.34,0.55c0.65,0,1.15-0.3,1.74-1.22l0.53-0.8l-1.88-7.52h1.03l1.57,6.44l4.13-6.44H293.22z"/>
		</g>
	</g>
</g>
<g>
	<g>
		<g>
			<g>
				<path class="st0" d="M316,300.86H195.01h-32.39l24.99,18.03v35.47c0,4.09,3.32,7.41,7.41,7.41H316c4.09,0,7.41-3.32,7.41-7.41
					v-46.1C323.41,304.18,320.09,300.86,316,300.86z"/>
			</g>
		</g>
	</g>
	<g>
		<g>
			<g>
				<g>
					<path class="st1" d="M309.6,325.93c0,0.15-23.13,0.27-51.67,0.27c-28.54,0-51.67-0.12-51.67-0.27c0-0.15,23.13-0.27,51.67-0.27
						C286.47,325.66,309.6,325.78,309.6,325.93z"/>
				</g>
			</g>
		</g>
	</g>
	<g>
		<g>
			<g>
				<g>
					<path class="st1" d="M309.6,339.55c0,0.15-23.13,0.27-51.67,0.27c-28.54,0-51.67-0.12-51.67-0.27c0-0.15,23.13-0.27,51.67-0.27
						C286.47,339.28,309.6,339.4,309.6,339.55z"/>
				</g>
			</g>
		</g>
	</g>
</g>
<g>
	<path class="st4" d="M847.99,700.42c0,0.14-156.83,0.26-350.25,0.26c-193.49,0-350.28-0.12-350.28-0.26s156.8-0.26,350.28-0.26
		C691.16,700.16,847.99,700.28,847.99,700.42z"/>
</g>
<g>
	<g>
		<g>
			<path class="st5" d="M782.17,649.38c0,0-26.51-30.51-36.51-61.02c-10-30.51-5.25-27.01-5.25-27.01s13.5,29.64,23.76,43.95
				c10.25,14.32,28.51,35.32,28.51,35.32L782.17,649.38z"/>
		</g>
		<g>
			<path class="st5" d="M787.46,566.11c-0.86-1.49-3.13-0.72-2.88,0.98c1.62,10.72,5.11,35.86,4.97,52.18
				c-0.18,21.19,0.01,29.38,0.01,29.38h11.03c0,0-1.96-43.8-4.45-57.16C794.39,582.13,790.68,571.73,787.46,566.11z"/>
		</g>
		<g>
			<path class="st5" d="M793.47,645.09c0,0,6.94-14.6,9.08-32.94c0.91-7.8-0.71-18.34-3.12-32.41c-1.17-6.81-1.43-12-1.39-15.59
				c0.03-2.72,3.61-3.6,4.94-1.23c1.33,2.38,5.19,10.49,6.16,15.58c2.67,13.89,5.7,20.83,3.38,34.01
				c-2.31,13.18-10.86,33.47-10.86,33.47L793.47,645.09z"/>
		</g>
		<g>
			<path class="st5" d="M803.41,645.98c0,0,29.1-62.55,31.12-71.82c2.02-9.28,8.88-30.66,9.68-29.45
				c0.81,1.21,2.02,12.51-3.23,25.42c-5.24,12.91-27.64,77.76-27.64,77.76h-9.94"/>
		</g>
		<g>
			<g>
				<path class="st4" d="M790.28,643.18c-0.01,0.02-0.29-0.18-0.82-0.56c-0.52-0.39-1.3-0.94-2.25-1.72
					c-1.94-1.52-4.66-3.84-7.82-6.9c-6.35-6.1-14.26-15.51-21.11-27.1c-6.87-11.59-11.49-22.92-14.41-31.22
					c-1.46-4.15-2.53-7.55-3.22-9.92c-0.36-1.18-0.6-2.1-0.77-2.73c-0.17-0.63-0.25-0.96-0.23-0.96c0.02-0.01,0.14,0.31,0.35,0.93
					c0.22,0.67,0.51,1.57,0.88,2.69c0.76,2.34,1.89,5.71,3.41,9.84c3.02,8.24,7.69,19.51,14.53,31.05
					c6.83,11.54,14.64,20.95,20.89,27.1c3.11,3.1,5.78,5.45,7.67,7.03c0.93,0.81,1.69,1.39,2.18,1.81
					C790.04,642.94,790.3,643.16,790.28,643.18z"/>
			</g>
		</g>
		<g>
			<g>
				<path class="st4" d="M793.47,613.17c-0.04,0-0.13-0.65-0.26-1.84c-0.14-1.3-0.32-2.98-0.54-5.01
					c-0.46-4.23-1.18-10.07-2.21-16.48c-1.03-6.41-2.18-12.18-3.07-16.34c-0.43-2-0.79-3.66-1.06-4.93
					c-0.25-1.16-0.37-1.81-0.33-1.82c0.04-0.01,0.24,0.62,0.56,1.77c0.33,1.15,0.76,2.82,1.26,4.89c1,4.14,2.22,9.91,3.25,16.34
					c1.03,6.43,1.68,12.28,2.03,16.53c0.18,2.12,0.29,3.85,0.34,5.04C793.5,612.51,793.51,613.17,793.47,613.17z"/>
			</g>
		</g>
		<g>
			<g>
				<path class="st4" d="M800.28,562.42c0.02-0.01,0.14,0.27,0.34,0.79c0.22,0.59,0.51,1.36,0.87,2.32
					c0.39,1.01,0.83,2.25,1.25,3.72c0.43,1.47,0.99,3.12,1.41,5.01c0.23,0.94,0.47,1.92,0.72,2.94c0.24,1.02,0.42,2.11,0.64,3.22
					c0.48,2.22,0.77,4.63,1.12,7.16c0.57,5.07,0.88,10.68,0.7,16.58c-0.24,5.89-0.95,11.47-1.88,16.49c-0.53,2.5-1,4.88-1.63,7.06
					c-0.3,1.09-0.55,2.16-0.87,3.17c-0.32,1-0.63,1.96-0.93,2.88c-0.56,1.85-1.23,3.46-1.77,4.89c-0.53,1.44-1.06,2.65-1.51,3.62
					c-0.43,0.93-0.77,1.68-1.04,2.25c-0.24,0.51-0.38,0.78-0.4,0.77c-0.02-0.01,0.08-0.29,0.29-0.82c0.23-0.58,0.54-1.35,0.93-2.3
					c0.42-0.99,0.92-2.21,1.41-3.65c0.5-1.44,1.15-3.06,1.68-4.91c0.28-0.92,0.58-1.88,0.89-2.88c0.3-1,0.54-2.07,0.83-3.16
					c0.61-2.18,1.05-4.55,1.57-7.04c0.9-5,1.59-10.55,1.82-16.4c0.18-5.86-0.11-11.44-0.64-16.49c-0.34-2.52-0.61-4.91-1.06-7.13
					c-0.21-1.11-0.37-2.19-0.6-3.21c-0.24-1.02-0.46-2-0.68-2.94c-0.39-1.88-0.92-3.54-1.32-5.01c-0.39-1.48-0.8-2.73-1.14-3.75
					c-0.32-0.98-0.57-1.76-0.76-2.36C800.34,562.72,800.26,562.43,800.28,562.42z"/>
			</g>
		</g>
		<g>
			<g>
				<path class="st4" d="M843.88,545.96c0.01,0,0,0.1-0.02,0.28c-0.03,0.22-0.08,0.49-0.13,0.81c-0.13,0.71-0.29,1.77-0.57,3.11
					c-0.56,2.69-1.5,6.56-2.95,11.26c-1.45,4.7-3.44,10.21-5.8,16.26c-2.35,6.06-5.08,12.65-7.66,19.67
					c-2.62,7.01-4.64,13.85-6.54,20.06c-1.88,6.21-3.67,11.79-5.39,16.4c-1.71,4.61-3.35,8.24-4.6,10.7
					c-0.6,1.24-1.13,2.16-1.48,2.8c-0.16,0.29-0.3,0.52-0.41,0.72c-0.09,0.16-0.15,0.24-0.16,0.23c-0.01-0.01,0.03-0.09,0.1-0.26
					c0.1-0.2,0.21-0.45,0.35-0.74c0.31-0.65,0.81-1.59,1.37-2.85c1.17-2.48,2.75-6.12,4.4-10.74c1.67-4.61,3.41-10.19,5.26-16.41
					c1.87-6.21,3.88-13.08,6.51-20.11c2.59-7.04,5.34-13.63,7.71-19.67c2.38-6.03,4.41-11.51,5.91-16.18
					c1.51-4.67,2.5-8.51,3.14-11.18c0.32-1.33,0.52-2.38,0.69-3.08c0.08-0.32,0.14-0.58,0.19-0.8
					C843.84,546.05,843.87,545.96,843.88,545.96z"/>
			</g>
		</g>
		<g>
			<g>
				<path class="st5" d="M754.13,532.14c-1.83-1.82-4.88,0.08-4.12,2.56c0.77,2.51,1.94,5.75,3.66,9.4
					c4,8.5,15.75,39.01,21.26,55.77c5.5,16.75,13.25,48.01,13.25,48.01l11.75-1.91c0,0-10.75-51.36-21.25-69.87
					C770.23,561.24,761.79,539.76,754.13,532.14z"/>
			</g>
			<g>
				<g>
					<path class="st4" d="M778.14,610.35c0.04-0.01,0.25,0.49,0.61,1.41c0.35,0.92,0.82,2.27,1.35,3.94
						c1.08,3.35,2.41,8.03,3.74,13.23c1.33,5.2,2.44,9.93,3.21,13.37c0.35,1.62,0.65,2.99,0.88,4.07c0.2,0.96,0.28,1.5,0.24,1.51
						c-0.04,0.01-0.21-0.51-0.48-1.46c-0.29-1.07-0.65-2.42-1.08-4.02c-0.9-3.53-2.08-8.18-3.39-13.32
						c-1.33-5.19-2.59-9.88-3.56-13.26c-0.46-1.59-0.85-2.93-1.16-4C778.23,610.89,778.09,610.36,778.14,610.35z"/>
				</g>
			</g>
			<g>
				<g>
					<path class="st4" d="M794.08,646.93c-0.01,0-0.03-0.11-0.07-0.31c-0.04-0.24-0.08-0.55-0.13-0.93
						c-0.12-0.81-0.23-2.02-0.48-3.56c-0.43-3.09-1.2-7.53-2.46-12.96c-1.25-5.43-3.08-11.81-5.5-18.77
						c-2.41-6.96-5.43-14.48-8.86-22.26c-6.91-15.55-13.82-29.34-18.35-39.54c-2.29-5.09-4.07-9.24-5.24-12.13
						c-0.6-1.44-1.02-2.58-1.32-3.34c-0.13-0.36-0.24-0.64-0.33-0.88c-0.07-0.2-0.1-0.3-0.09-0.31c0.01,0,0.06,0.09,0.15,0.28
						c0.1,0.22,0.23,0.51,0.38,0.85c0.35,0.8,0.82,1.9,1.43,3.29c1.24,2.86,3.07,6.98,5.41,12.04c4.64,10.14,11.6,23.9,18.52,39.47
						c3.43,7.79,6.44,15.34,8.83,22.33c2.39,6.99,4.18,13.4,5.39,18.86c1.21,5.45,1.92,9.92,2.27,13.03
						c0.21,1.55,0.28,2.76,0.37,3.58c0.03,0.38,0.05,0.69,0.07,0.93C794.09,646.82,794.09,646.93,794.08,646.93z"/>
				</g>
			</g>
			<g>
				<g>
					<path class="st4" d="M799.92,645.98c-0.04,0.01-0.18-0.7-0.4-1.97c-0.23-1.38-0.54-3.2-0.91-5.4
						c-0.81-4.55-2.05-10.82-3.82-17.64c-1.76-6.83-3.74-12.91-5.27-17.27c-0.75-2.1-1.37-3.84-1.84-5.16
						c-0.44-1.22-0.66-1.9-0.62-1.91c0.04-0.02,0.34,0.63,0.85,1.83c0.51,1.19,1.21,2.93,2.03,5.1c1.63,4.33,3.69,10.41,5.46,17.26
						c1.78,6.85,2.95,13.15,3.65,17.73c0.33,2.29,0.59,4.15,0.72,5.44C799.91,645.26,799.96,645.97,799.92,645.98z"/>
				</g>
			</g>
		</g>
	</g>
	<g>
		<g>
			<rect x="778.18" y="644.29" class="st6" width="45.86" height="55.87"/>
		</g>
		<g class="st7">
			<rect x="778.18" y="644.29" width="45.86" height="55.87"/>
		</g>
		<g>
			<rect x="768.72" y="644.29" class="st6" width="40.68" height="55.87"/>
		</g>
	</g>
</g>
<g>
	<g>
		<path class="st5" d="M213.25,624.87c-7.81-5-18.64-5.1-26.24,0.22c-7.22,5.05-10.88,14.23-10.56,23.03
			c0.32,8.8,4.58,19.55,12.56,24.18l23.4-0.09c7.47-5.5,12.53-14.35,12.88-23.62C225.64,639.31,221.06,629.87,213.25,624.87z"/>
		<g>
			<g>
				<path class="st4" d="M201.73,673.14c-0.05,0-0.1-0.72-0.15-2.01c-0.04-1.44-0.09-3.28-0.16-5.49c-0.12-4.63-0.3-11.03-0.61-18.1
					c-0.31-7.07-0.69-13.46-0.98-18.08c-0.13-2.2-0.24-4.04-0.33-5.48c-0.07-1.3-0.08-2.01-0.03-2.02c0.05,0,0.16,0.71,0.32,1.99
					c0.16,1.29,0.35,3.16,0.56,5.47c0.42,4.62,0.89,11.02,1.2,18.09c0.31,7.07,0.41,13.48,0.39,18.12c-0.01,2.32-0.04,4.2-0.08,5.49
					C201.83,672.42,201.78,673.14,201.73,673.14z"/>
			</g>
		</g>
		<g>
			<g>
				<path class="st4" d="M178.8,646.12c-0.02,0.21-1.29,0.27-2.84,0.14c-1.55-0.13-2.8-0.4-2.78-0.6c0.02-0.21,1.29-0.27,2.84-0.14
					C177.58,645.64,178.82,645.91,178.8,646.12z"/>
			</g>
		</g>
		<g>
			<g>
				<path class="st4" d="M179.24,638.22c-0.08,0.19-1.18-0.11-2.45-0.68c-1.27-0.56-2.23-1.17-2.15-1.36
					c0.08-0.19,1.18,0.11,2.45,0.68C178.36,637.42,179.32,638.03,179.24,638.22z"/>
			</g>
		</g>
		<g>
			<g>
				<path class="st4" d="M183.3,632.36c-0.11,0.17-1.34-0.41-2.62-1.47c-1.29-1.06-2.09-2.16-1.94-2.3c0.15-0.14,1.17,0.7,2.41,1.72
					C182.4,631.34,183.42,632.18,183.3,632.36z"/>
			</g>
		</g>
		<g>
			<g>
				<path class="st4" d="M187.39,626.83c-0.19,0.08-0.78-0.84-1.32-2.06c-0.54-1.22-0.83-2.28-0.64-2.36
					c0.19-0.08,0.78,0.84,1.32,2.06C187.29,625.69,187.58,626.75,187.39,626.83z"/>
			</g>
		</g>
		<g>
			<g>
				<path class="st4" d="M193.8,622.91c-0.18,0.09-0.82-0.9-1.24-2.26c-0.43-1.36-0.46-2.53-0.26-2.57
					c0.21-0.04,0.56,1.03,0.97,2.34C193.68,621.74,193.99,622.82,193.8,622.91z"/>
			</g>
		</g>
		<g>
			<g>
				<path class="st4" d="M204.5,618.48c0.19,0.07,0.08,0.91-0.27,1.87c-0.34,0.97-0.78,1.69-0.97,1.63
					c-0.19-0.07-0.08-0.91,0.27-1.87C203.87,619.14,204.3,618.41,204.5,618.48z"/>
			</g>
		</g>
		<g>
			<g>
				<path class="st4" d="M212.43,621.89c0.14,0.15-0.37,0.85-1.14,1.56c-0.77,0.71-1.5,1.16-1.64,1.01
					c-0.14-0.15,0.37-0.85,1.14-1.56C211.56,622.19,212.29,621.74,212.43,621.89z"/>
			</g>
		</g>
		<g>
			<g>
				<path class="st4" d="M219.42,626.4c0.12,0.17-0.51,0.79-1.39,1.39c-0.88,0.6-1.69,0.94-1.81,0.77c-0.12-0.17,0.5-0.79,1.39-1.39
					C218.49,626.57,219.3,626.23,219.42,626.4z"/>
			</g>
		</g>
		<g>
			<g>
				<path class="st4" d="M224.38,633.12c0.08,0.19-0.9,0.79-2.18,1.34c-1.29,0.55-2.4,0.84-2.48,0.65c-0.08-0.19,0.9-0.79,2.19-1.34
					C223.19,633.23,224.3,632.94,224.38,633.12z"/>
			</g>
		</g>
		<g>
			<g>
				<path class="st4" d="M226.33,640.46c0.03,0.2-0.97,0.5-2.22,0.65c-1.25,0.16-2.29,0.11-2.31-0.09c-0.03-0.2,0.97-0.5,2.22-0.65
					C225.27,640.22,226.3,640.26,226.33,640.46z"/>
			</g>
		</g>
		<g>
			<g>
				<path class="st4" d="M227.35,649.49c-0.08,0.19-1.14-0.09-2.37-0.62c-1.23-0.53-2.15-1.12-2.07-1.31
					c0.08-0.19,1.14,0.09,2.37,0.62C226.5,648.72,227.43,649.3,227.35,649.49z"/>
			</g>
		</g>
		<g>
			<g>
				<path class="st4" d="M226.45,657.24c-0.07,0.19-1.41-0.13-2.81-1.05c-1.41-0.91-2.24-2.01-2.09-2.15
					c0.15-0.15,1.17,0.66,2.5,1.52C225.38,656.43,226.53,657.04,226.45,657.24z"/>
			</g>
		</g>
		<g>
			<g>
				<path class="st4" d="M222.42,664.29c-0.12,0.16-1.19-0.47-2.21-1.57c-1.03-1.1-1.57-2.21-1.41-2.32
					c0.17-0.12,0.97,0.76,1.95,1.82C221.73,663.27,222.55,664.13,222.42,664.29z"/>
			</g>
		</g>
		<g>
			<g>
				<path class="st4" d="M184.11,665.12c0.1,0.18-1.03,0.96-2.5,1.72c-1.48,0.77-2.75,1.24-2.85,1.06c-0.1-0.18,1.03-0.95,2.5-1.72
					C182.74,665.41,184.01,664.94,184.11,665.12z"/>
			</g>
		</g>
		<g>
			<g>
				<path class="st4" d="M180.61,658.74c0.09,0.19-0.81,0.78-2.01,1.32c-1.19,0.54-2.23,0.83-2.32,0.64
					c-0.09-0.19,0.81-0.78,2.01-1.32C179.49,658.84,180.53,658.55,180.61,658.74z"/>
			</g>
		</g>
		<g>
			<g>
				<path class="st4" d="M178.04,653.09c0.03,0.2-1.08,0.53-2.47,0.73c-1.39,0.2-2.55,0.19-2.58-0.01c-0.03-0.2,1.08-0.53,2.47-0.73
					C176.86,652.88,178.01,652.89,178.04,653.09z"/>
			</g>
		</g>
		<g>
			<g>
				<path class="st4" d="M186.48,649.97c0.06,0.19-1.02,0.7-2.46,0.86c-1.44,0.17-2.6-0.09-2.59-0.29c0.01-0.21,1.14-0.3,2.5-0.46
					C185.3,649.94,186.42,649.77,186.48,649.97z"/>
			</g>
		</g>
		<g>
			<g>
				<path class="st4" d="M193.48,643c0.06,0.19-0.8,0.63-1.96,0.74c-1.16,0.12-2.08-0.14-2.06-0.34c0.02-0.21,0.91-0.29,1.99-0.4
					C192.53,642.89,193.42,642.8,193.48,643z"/>
			</g>
		</g>
		<g>
			<g>
				<path class="st4" d="M194.82,637.41c-0.07,0.2-1,0.05-2.08-0.32c-1.08-0.37-1.9-0.83-1.83-1.03c0.07-0.19,1-0.05,2.08,0.32
					C194.07,636.76,194.89,637.22,194.82,637.41z"/>
			</g>
		</g>
		<g>
			<g>
				<path class="st4" d="M197.39,631.76c-0.14,0.14-0.78-0.28-1.24-1.07c-0.46-0.79-0.5-1.55-0.31-1.61
					c0.2-0.06,0.55,0.53,0.95,1.23C197.21,631.03,197.54,631.62,197.39,631.76z"/>
			</g>
		</g>
		<g>
			<g>
				<path class="st4" d="M194.3,654.89c0.05,0.2-0.76,0.57-1.8,0.82c-0.6,0.15-1.15,0.22-1.51,0.22l-0.15-0.44
					c0.27-0.05,0.44-0.04,0.48,0.04c0.04,0.08-0.07,0.22-0.29,0.38l-0.15-0.44c0.32-0.17,0.84-0.35,1.44-0.5
					C193.36,654.74,194.25,654.69,194.3,654.89z"/>
			</g>
		</g>
		<g>
			<g>
				<path class="st4" d="M195.74,664.8c0.08,0.19-0.95,0.78-2.29,1.3c-1.34,0.53-2.49,0.8-2.57,0.61c-0.08-0.19,0.95-0.78,2.29-1.3
					C194.52,664.88,195.66,664.61,195.74,664.8z"/>
			</g>
		</g>
		<g>
			<g>
				<path class="st4" d="M187.82,660.4c0.07,0.2-0.62,0.6-1.53,0.91c-0.91,0.31-1.7,0.4-1.77,0.21c-0.07-0.2,0.62-0.6,1.53-0.91
					C186.96,660.3,187.76,660.2,187.82,660.4z"/>
			</g>
		</g>
		<g>
			<g>
				<path class="st4" d="M188.43,640.24c-0.05,0.2-1.24,0.08-2.62-0.41c-1.38-0.49-2.38-1.14-2.29-1.33
					c0.09-0.19,1.2,0.15,2.54,0.62C187.4,639.6,188.48,640.04,188.43,640.24z"/>
			</g>
		</g>
		<g>
			<g>
				<path class="st4" d="M207.59,638.05c0.11,0.17-0.56,0.82-1.5,1.44c-0.94,0.62-1.8,0.98-1.91,0.81c-0.11-0.17,0.56-0.82,1.5-1.44
					C206.62,638.24,207.47,637.87,207.59,638.05z"/>
			</g>
		</g>
		<g>
			<g>
				<path class="st4" d="M208.63,647.99c0.04,0.2-0.66,0.52-1.58,0.71c-0.91,0.19-1.68,0.18-1.73-0.02
					c-0.04-0.2,0.66-0.52,1.58-0.71C207.81,647.78,208.59,647.79,208.63,647.99z"/>
			</g>
		</g>
		<g>
			<g>
				<path class="st4" d="M209.84,659.18c-0.09,0.19-1.1-0.1-2.27-0.64c-1.17-0.54-2.04-1.13-1.95-1.32c0.09-0.19,1.1,0.1,2.27,0.64
					C209.05,658.4,209.93,658.99,209.84,659.18z"/>
			</g>
		</g>
		<g>
			<g>
				<path class="st4" d="M207.28,670.07c-0.16,0.13-0.82-0.41-1.47-1.2c-0.65-0.8-1.05-1.55-0.9-1.68c0.16-0.13,0.82,0.41,1.47,1.2
					C207.04,669.18,207.44,669.93,207.28,670.07z"/>
			</g>
		</g>
		<g>
			<g>
				<path class="st4" d="M206.75,630.72c0.13,0.16-0.31,0.71-1.06,1.08c-0.75,0.38-1.45,0.4-1.5,0.2c-0.06-0.2,0.49-0.53,1.16-0.87
					C206.04,630.8,206.63,630.56,206.75,630.72z"/>
			</g>
		</g>
		<g>
			<g>
				<path class="st4" d="M216.14,640.76c0.07,0.19-0.8,0.67-1.99,0.83c-1.19,0.17-2.15-0.06-2.14-0.26
					c0.01-0.21,0.93-0.33,2.04-0.48C215.16,640.7,216.07,640.56,216.14,640.76z"/>
			</g>
		</g>
		<g>
			<g>
				<path class="st4" d="M214.27,631.75c0.09,0.18-0.77,0.8-2,1.19c-1.23,0.39-2.29,0.39-2.32,0.19c-0.03-0.21,0.92-0.53,2.09-0.9
					C213.21,631.85,214.18,631.56,214.27,631.75z"/>
			</g>
		</g>
		<g>
			<g>
				<path class="st4" d="M218.19,654.7c0,0.2-1.48,0.33-3.26,0.01c-1.78-0.32-3.12-0.96-3.05-1.15c0.07-0.2,1.46,0.11,3.18,0.41
					C216.78,654.29,218.2,654.49,218.19,654.7z"/>
			</g>
		</g>
		<g>
			<g>
				<path class="st4" d="M214.7,667.78c-0.12,0.16-1.21-0.48-2.29-1.57c-1.09-1.09-1.72-2.18-1.56-2.3
					c0.17-0.13,1.04,0.72,2.09,1.77C213.99,666.74,214.83,667.62,214.7,667.78z"/>
			</g>
		</g>
		<g>
			<g>
				<path class="st4" d="M199.36,621.1c0.11,0.16-2.98,1.41-6.55,5.18c-3.57,3.68-7.25,10.18-8.16,18.03
					c-0.43,3.9-0.06,7.68,0.49,11.05c0.58,3.37,1.36,6.37,2.07,8.87c0.72,2.5,1.38,4.5,1.82,5.88c0.44,1.39,0.68,2.16,0.63,2.18
					c-0.05,0.02-0.37-0.72-0.9-2.08c-0.53-1.36-1.26-3.34-2.05-5.83c-0.78-2.49-1.61-5.49-2.24-8.9c-0.6-3.4-1-7.24-0.56-11.25
					c0.93-8.03,4.78-14.65,8.52-18.31c1.86-1.86,3.61-3.1,4.89-3.82c0.62-0.39,1.15-0.6,1.5-0.78
					C199.16,621.16,199.35,621.08,199.36,621.1z"/>
			</g>
		</g>
		<g>
			<g>
				<path class="st4" d="M209.55,672.77c-0.16-0.08,1.68-2.92,3.36-8.02c1.73-5.05,3.16-12.52,2.01-20.63
					c-0.54-4.05-1.71-7.8-3.18-11c-1.53-3.16-3.5-5.75-5.42-7.56c-1.99-1.76-3.95-2.77-5.32-3.36c-1.38-0.58-2.21-0.71-2.2-0.77
					c0-0.02,0.21-0.01,0.61,0.05c0.39,0.07,0.97,0.2,1.69,0.46c1.43,0.52,3.45,1.47,5.56,3.23c2.05,1.83,4.08,4.41,5.7,7.66
					c1.54,3.26,2.75,7.07,3.3,11.19c1.17,8.27-0.37,15.85-2.25,20.91c-0.42,1.29-0.97,2.4-1.37,3.39c-0.48,0.96-0.88,1.8-1.24,2.46
					C210.03,672.08,209.59,672.79,209.55,672.77z"/>
			</g>
		</g>
	</g>
	<g>
		<polygon class="st6" points="180.61,671 221.79,671 222.05,679.24 180.61,679.24 		"/>
	</g>
	<g>
		<polygon class="st6" points="184.11,675.12 186.48,700.28 216.58,700.28 219,675.4 		"/>
	</g>
	<g>
		<g>
			<path class="st4" d="M222.05,679.34c0,0.21-9.27,0.37-20.71,0.37c-11.44,0-20.71-0.17-20.71-0.37s9.27-0.37,20.71-0.37
				C212.77,678.97,222.05,679.13,222.05,679.34z"/>
		</g>
	</g>
	<g>
		<g>
			<path class="st4" d="M217.86,687.01c0.04,0.02-0.24,0.6-0.88,1.57c-0.65,0.96-1.67,2.32-3.19,3.77l-0.19,0.18l-0.19-0.2
				c-1.98-2.08-4.71-4.63-8.07-7.06l0.46-0.02c-1.15,1.01-2.35,2.06-3.58,3.14c-1.46,1.27-2.88,2.51-4.23,3.68l-0.23,0.2l-0.23-0.2
				c-2.56-2.16-4.9-4.12-6.88-5.78l0.4-0.04c-1.42,1.73-2.61,3.19-3.56,4.34c-0.86,1.02-1.35,1.56-1.4,1.53s0.37-0.65,1.15-1.72
				c0.89-1.19,2.02-2.7,3.36-4.49l0.17-0.23l0.23,0.19c2.01,1.63,4.38,3.55,6.98,5.66l-0.47,0.01c1.35-1.18,2.76-2.42,4.21-3.7
				c1.23-1.08,2.44-2.12,3.59-3.13l0.22-0.19l0.23,0.17c3.39,2.49,6.1,5.13,8.03,7.29l-0.38-0.01
				C216.48,689.19,217.74,686.92,217.86,687.01z"/>
		</g>
	</g>
</g>
<g>
	<g>
		<g>
			<g>
				<g>
					<g>
						<g>
							<g>
								<g>
									<g>
										<g>
											<path class="st5" d="M712.68,693.38H276.75c-8.05,0-14.57-6.52-14.57-14.57v-278.4c0-8.05,6.52-14.57,14.57-14.57h435.92
												c8.05,0,14.57,6.52,14.57,14.57v278.4C727.24,686.85,720.72,693.38,712.68,693.38z"/>
										</g>
									</g>
								</g>
							</g>
							<g>
								<g>
									<g>
										<g>
											<path class="st5" d="M733.02,700.42H264.76c-9.83,0-17.8-7.97-17.8-17.8v-9.11h503.85v9.11
												C750.82,692.46,742.85,700.42,733.02,700.42z"/>
										</g>
									</g>
								</g>
							</g>
							<g>
								<g>
									<g>
										<g>
											<polygon class="st4" points="448.87,670.63 455.12,680.58 543.1,680.58 548.91,670.63 											"/>
										</g>
									</g>
								</g>
							</g>
						</g>
						<g>
							<g>
								<g>
									<g>
										<path class="st4" d="M723.25,670.63c0,0.17-103.22,0.3-230.52,0.3c-127.34,0-230.54-0.13-230.54-0.3
											c0-0.17,103.2-0.3,230.54-0.3C620.03,670.33,723.25,670.46,723.25,670.63z"/>
									</g>
								</g>
							</g>
						</g>
					</g>
				</g>
			</g>
		</g>
		<g>
			<g>
				<g>
					<g>
						<g>
							<g>
								<g>
									<g>
										<path class="st2" d="M708.83,662.5H278.78c-1.81,0-3.27-1.47-3.27-3.27V406.8c0-1.81,1.47-3.27,3.27-3.27h430.06
											c1.81,0,3.27,1.47,3.27,3.27v252.43C712.11,661.03,710.64,662.5,708.83,662.5z"/>
									</g>
								</g>
							</g>
						</g>
					</g>
					<g>
						<g>
							<g>
								<g>
									<g>
										<polygon class="st8" points="711.64,662.88 275.04,662.88 275.51,422.88 711.64,422.88 										"/>
									</g>
								</g>
							</g>
						</g>
					</g>
					<g>
						<g>
							<g>
								<g>
									<g>
										<path class="st4" d="M311.31,413.53c0,1.93-1.56,3.49-3.49,3.49c-1.93,0-3.49-1.56-3.49-3.49c0-1.93,1.56-3.49,3.49-3.49
											C309.75,410.04,311.31,411.6,311.31,413.53z"/>
									</g>
								</g>
							</g>
						</g>
					</g>
					<g>
						<g>
							<g>
								<g>
									<g>
										<path class="st4" d="M290.18,413.53c0,1.93-1.56,3.49-3.49,3.49c-1.93,0-3.49-1.56-3.49-3.49c0-1.93,1.56-3.49,3.49-3.49
											C288.62,410.04,290.18,411.6,290.18,413.53z"/>
									</g>
								</g>
							</g>
						</g>
					</g>
					<g>
						<g>
							<g>
								<g>
									<g>
										<path class="st4" d="M300.32,413.53c0,1.93-1.56,3.49-3.49,3.49c-1.93,0-3.49-1.56-3.49-3.49c0-1.93,1.56-3.49,3.49-3.49
											C298.76,410.04,300.32,411.6,300.32,413.53z"/>
									</g>
								</g>
							</g>
						</g>
					</g>
				</g>
			</g>
		</g>
		<rect x="275.04" y="639.7" class="st4" width="437.07" height="23.18"/>
		<g>
			<g>
				<path class="st8" d="M291.55,653.97v0.74h-3.48v-0.59l1.88-1.78c0.46-0.44,0.54-0.71,0.54-0.98c0-0.43-0.3-0.68-0.88-0.68
					c-0.46,0-0.84,0.16-1.11,0.49l-0.61-0.47c0.36-0.49,1.02-0.78,1.79-0.78c1.03,0,1.69,0.52,1.69,1.36c0,0.46-0.13,0.88-0.78,1.49
					l-1.26,1.2H291.55z"/>
				<path class="st8" d="M292.02,651.63c0-0.34,0.25-0.56,0.55-0.56c0.3,0,0.55,0.22,0.55,0.56c0,0.32-0.25,0.56-0.55,0.56
					C292.27,652.19,292.02,651.96,292.02,651.63z M292.02,654.2c0-0.34,0.25-0.56,0.55-0.56c0.3,0,0.55,0.22,0.55,0.56
					c0,0.32-0.25,0.56-0.55,0.56C292.27,654.76,292.02,654.53,292.02,654.2z"/>
				<path class="st8" d="M295.33,649.99v4.72h-0.88v-3.99h-1v-0.74H295.33z"/>
				<path class="st8" d="M300.47,653.64h-0.84v1.07h-0.85v-1.07h-2.59v-0.61l2.33-3.04h0.94l-2.19,2.91h1.55v-0.95h0.82v0.95h0.84
					V653.64z"/>
			</g>
			<g>
				<rect x="308.19" y="651.76" class="st8" width="358.24" height="1.63"/>
			</g>
			<g>
				<rect x="307.92" y="650" class="st6" width="111.95" height="4.36"/>
			</g>
			<g>
				<path class="st6" d="M423.48,652.57c0,3.01-2.44,5.45-5.45,5.45c-3.01,0-5.45-2.44-5.45-5.45c0-3.01,2.44-5.45,5.45-5.45
					C421.04,647.12,423.48,649.56,423.48,652.57z"/>
			</g>
			<g>
				<path class="st8" d="M675.45,652.52c0,0.94-0.76,1.53-1.73,1.53c-1.29,0-2.04-0.83-2.04-2.35c0-1.62,0.94-2.51,2.31-2.51
					c0.47,0,0.92,0.1,1.24,0.3l-0.32,0.66c-0.26-0.17-0.57-0.23-0.9-0.23c-0.89,0-1.45,0.55-1.45,1.63v0.01
					c0.28-0.33,0.74-0.49,1.26-0.49C674.75,651.07,675.45,651.64,675.45,652.52z M674.6,652.56c0-0.49-0.37-0.8-0.94-0.8
					c-0.57,0-0.96,0.34-0.96,0.81c0,0.44,0.35,0.8,0.98,0.8C674.22,653.36,674.6,653.05,674.6,652.56z"/>
				<path class="st8" d="M675.87,650.9c0-0.34,0.25-0.56,0.55-0.56c0.3,0,0.55,0.22,0.55,0.56c0,0.32-0.25,0.56-0.55,0.56
					C676.12,651.46,675.87,651.22,675.87,650.9z M675.87,653.47c0-0.34,0.25-0.56,0.55-0.56c0.3,0,0.55,0.22,0.55,0.56
					c0,0.32-0.25,0.56-0.55,0.56C676.12,654.03,675.87,653.79,675.87,653.47z"/>
				<path class="st8" d="M677.54,651.62c0-1.55,0.85-2.43,1.97-2.43c1.13,0,1.98,0.88,1.98,2.43c0,1.55-0.85,2.43-1.98,2.43
					C678.39,654.05,677.54,653.17,677.54,651.62z M680.61,651.62c0-1.14-0.44-1.67-1.09-1.67c-0.64,0-1.09,0.53-1.09,1.67
					c0,1.14,0.45,1.67,1.09,1.67C680.16,653.29,680.61,652.76,680.61,651.62z"/>
				<path class="st8" d="M682.08,651.62c0-1.55,0.85-2.43,1.97-2.43c1.13,0,1.98,0.88,1.98,2.43c0,1.55-0.85,2.43-1.98,2.43
					C682.93,654.05,682.08,653.17,682.08,651.62z M685.14,651.62c0-1.14-0.44-1.67-1.09-1.67c-0.64,0-1.09,0.53-1.09,1.67
					c0,1.14,0.45,1.67,1.09,1.67C684.7,653.29,685.14,652.76,685.14,651.62z"/>
			</g>
			<g>
				<polygon class="st8" points="693.65,651.33 692.02,651.33 692.02,646.62 696.72,646.62 696.72,648.25 693.65,648.25 				"/>
			</g>
			<g>
				<polygon class="st8" points="696.72,657.47 692.01,657.47 692.01,652.78 693.65,652.78 693.65,655.84 696.72,655.84 				"/>
			</g>
			<g>
				<polygon class="st8" points="704.22,657.47 699.52,657.47 699.52,655.84 702.59,655.84 702.59,652.77 704.22,652.77 				"/>
			</g>
			<g>
				<polygon class="st8" points="704.23,651.32 702.59,651.32 702.59,648.25 699.52,648.25 699.52,646.62 704.23,646.62 				"/>
			</g>
		</g>
	</g>
	<g>
		<g>
			<polygon class="st2" points="334.91,437.15 309.18,437.15 296.31,459.43 309.18,481.72 334.91,481.72 347.78,459.43 			"/>
			<g>
				<g>
					<g>
						<path class="st4" d="M311.28,463.8c-1.15-1.27-2.31-2.56-3.15-4.06c-0.84-1.5-1.34-3.24-1.06-4.94
							c0.16-0.99,0.58-1.93,0.65-2.93c0.09-1.38-0.49-2.82,0-4.11c0.76-2.02,3.48-2.33,5.13-3.72c1.28-1.09,1.91-2.85,3.32-3.76
							c1.23-0.8,2.82-0.78,4.27-0.57c1.45,0.21,2.92,0.57,4.37,0.38c1.04-0.14,2.01-0.56,3.03-0.81s2.15-0.32,3.05,0.21
							c0.9,0.53,1.41,1.81,0.82,2.67c1.69-0.78,3.83,0.54,4.29,2.33c0.46,1.8-0.46,3.74-1.89,4.93c-1.43,1.19-3.28,1.74-5.1,2.08
							c-5.16,0.97-10.77,0.42-15.22-2.37"/>
					</g>
					<g>
						<g>
							<g>
								<g>
									<g>
										<g>
											<g>
												<path class="st9" d="M335.14,469.3c-0.17-3.19-1.07-9.73-1.94-15.64c-0.94-6.36-6.61-10.92-13.02-10.49l-0.64,0.04
													c-6.84,0.86-9.93,7.15-8.88,13.97l2.01,24.55h16.7c0,0-0.39-4.31-0.4-4.35C328.96,477.37,335.5,475.9,335.14,469.3z"/>
												<g>
													<g>
														<g>
															<g>
																<g>
																	<g>
																		<g>
																			<g>
																				<g>
																					<g>
																						<path class="st10" d="M328.97,477.28c0,0-4.15,0.62-8.77-1.87c0,0,2.35,4.61,8.9,3.58L328.97,477.28z"/>
																					</g>
																				</g>
																			</g>
																		</g>
																	</g>
																</g>
															</g>
														</g>
													</g>
												</g>
											</g>
										</g>
									</g>
									<g>
										<g>
											<g>
												<g>
													<g>
														<g>
															<g>
																<g>
																	<g>
																		<g>
																			<g>
																				<g>
																					<g>
																						<g>
																							<g>
																								<g>
																									<path class="st4" d="M331.07,459.32c0.05,0.5-0.33,0.95-0.85,1.01c-0.52,0.06-0.98-0.29-1.03-0.79
																										c-0.05-0.5,0.33-0.95,0.84-1.01C330.56,458.47,331.02,458.83,331.07,459.32z"/>
																								</g>
																							</g>
																						</g>
																					</g>
																				</g>
																			</g>
																		</g>
																	</g>
																</g>
															</g>
															<g>
																<g>
																	<g>
																		<g>
																			<g>
																				<g>
																					<g>
																						<g>
																							<g>
																								<g>
																									<g>
																										<path class="st4" d="M331.99,456.98c-0.11,0.13-0.86-0.35-1.87-0.28c-1.01,0.06-1.72,0.63-1.84,0.51
																											c-0.06-0.05,0.05-0.28,0.35-0.54c0.3-0.26,0.83-0.52,1.46-0.56c0.63-0.04,1.18,0.16,1.5,0.38
																											C331.92,456.71,332.04,456.92,331.99,456.98z"/>
																									</g>
																								</g>
																							</g>
																						</g>
																					</g>
																				</g>
																			</g>
																		</g>
																	</g>
																</g>
															</g>
														</g>
														<g>
															<g>
																<g>
																	<g>
																		<g>
																			<g>
																				<g>
																					<g>
																						<g>
																							<g>
																								<g>
																									<path class="st4" d="M321.48,460.01c0.05,0.5-0.33,0.95-0.85,1.01c-0.52,0.06-0.98-0.29-1.03-0.78
																										c-0.05-0.5,0.33-0.95,0.84-1.01C320.97,459.16,321.43,459.51,321.48,460.01z"/>
																								</g>
																							</g>
																						</g>
																					</g>
																				</g>
																			</g>
																		</g>
																	</g>
																</g>
															</g>
															<g>
																<g>
																	<g>
																		<g>
																			<g>
																				<g>
																					<g>
																						<g>
																							<g>
																								<g>
																									<g>
																										<path class="st4" d="M322.03,457.84c-0.11,0.13-0.86-0.35-1.87-0.28c-1.01,0.06-1.72,0.63-1.84,0.51
																											c-0.06-0.05,0.05-0.28,0.36-0.54c0.3-0.26,0.83-0.52,1.46-0.56c0.63-0.04,1.18,0.16,1.5,0.38
																											C321.96,457.56,322.08,457.78,322.03,457.84z"/>
																									</g>
																								</g>
																							</g>
																						</g>
																					</g>
																				</g>
																			</g>
																		</g>
																	</g>
																</g>
															</g>
														</g>
														<g>
															<g>
																<g>
																	<g>
																		<g>
																			<g>
																				<g>
																					<g>
																						<g>
																							<g>
																								<g>
																									<path class="st4" d="M326.22,465.11c-0.01-0.06,0.61-0.21,1.63-0.41c0.26-0.04,0.5-0.11,0.53-0.29
																										c0.05-0.19-0.08-0.46-0.22-0.76c-0.29-0.61-0.58-1.25-0.9-1.92c-1.25-2.74-2.18-4.99-2.07-5.04
																										c0.11-0.05,1.22,2.13,2.47,4.87c0.3,0.68,0.59,1.32,0.87,1.94c0.12,0.29,0.31,0.61,0.2,1.01
																										c-0.06,0.2-0.24,0.35-0.4,0.41c-0.16,0.06-0.31,0.07-0.44,0.09C326.86,465.12,326.22,465.17,326.22,465.11
																										z"/>
																								</g>
																							</g>
																						</g>
																					</g>
																				</g>
																			</g>
																		</g>
																	</g>
																</g>
															</g>
														</g>
													</g>
												</g>
											</g>
											<g>
												<g>
													<g>
														<g>
															<g>
																<g>
																	<g>
																		<g>
																			<g>
																				<g>
																					<path class="st4" d="M322.03,453.84c-0.08,0.28-1.1,0.22-2.28,0.44c-1.19,0.2-2.12,0.61-2.3,0.38
																						c-0.08-0.11,0.07-0.38,0.44-0.68c0.37-0.29,0.96-0.59,1.67-0.71c0.71-0.13,1.37-0.06,1.82,0.09
																						C321.83,453.51,322.06,453.71,322.03,453.84z"/>
																				</g>
																			</g>
																		</g>
																	</g>
																</g>
															</g>
														</g>
													</g>
												</g>
											</g>
											<g>
												<g>
													<g>
														<g>
															<g>
																<g>
																	<g>
																		<g>
																			<g>
																				<g>
																					<path class="st4" d="M331.42,454.07c-0.16,0.24-0.88,0.05-1.72,0.09c-0.84,0.02-1.54,0.26-1.72,0.03
																						c-0.08-0.11,0.02-0.35,0.31-0.59c0.29-0.24,0.79-0.45,1.37-0.47c0.58-0.02,1.09,0.15,1.4,0.37
																						C331.38,453.72,331.49,453.95,331.42,454.07z"/>
																				</g>
																			</g>
																		</g>
																	</g>
																</g>
															</g>
														</g>
													</g>
												</g>
											</g>
										</g>
									</g>
								</g>
							</g>
						</g>
						<g>
							<g>
								<g>
									<g>
										<g>
											<g>
												<g>
													<g>
														<g>
															<g>
																<g>
																	<path class="st9" d="M311.52,462.02c-0.12-0.04-4.63-1.04-4.18,3.47c0.45,4.5,5.33,3.04,5.32,2.91
																		C312.66,468.27,311.52,462.02,311.52,462.02z"/>
																</g>
															</g>
														</g>
													</g>
												</g>
											</g>
										</g>
									</g>
								</g>
							</g>
							<g>
								<g>
									<g>
										<g>
											<g>
												<g>
													<g>
														<g>
															<g>
																<g>
																	<g>
																		<path class="st10" d="M310.67,466.92c-0.02-0.01-0.07,0.06-0.2,0.14c-0.12,0.07-0.34,0.13-0.59,0.07
																			c-0.49-0.13-0.97-0.84-1.07-1.65c-0.05-0.41,0-0.81,0.11-1.14c0.1-0.34,0.3-0.59,0.53-0.66
																			c0.23-0.08,0.42,0.05,0.48,0.17c0.07,0.12,0.05,0.21,0.08,0.22c0.01,0.01,0.09-0.08,0.03-0.27
																			c-0.03-0.09-0.09-0.19-0.21-0.26c-0.12-0.08-0.28-0.11-0.45-0.07c-0.34,0.06-0.63,0.41-0.75,0.78
																			c-0.14,0.37-0.21,0.82-0.15,1.28c0.12,0.9,0.67,1.71,1.34,1.83c0.32,0.05,0.58-0.07,0.71-0.19
																			C310.67,467.03,310.68,466.92,310.67,466.92z"/>
																	</g>
																</g>
															</g>
														</g>
													</g>
												</g>
											</g>
										</g>
									</g>
								</g>
							</g>
						</g>
						<g>
							<g>
								<g>
									<path class="st4" d="M332.86,447.49c-0.31,1.79-3.94,3.43-6.96,3.35c-2.78-0.08-4.15-1.46-6.17-2.44
										c-1.28-0.62-1.28-0.62-3.01-0.34c-1.4,0.23-2.13,1.88-2.92,3.06c1.5,3.27,0.89,7.07,0.26,10.61
										c-0.07,0.39-0.16,0.81-0.46,1.08c-0.51,0.45-1.33,0.18-1.83-0.28c-0.8-0.73-1.16-1.81-1.42-2.86
										c-0.6-2.39-0.82-4.89-0.45-7.32c0.38-2.43,1.38-4.8,3.05-6.61c2.08-2.27,5.11-3.58,8.19-3.74
										c3.07-0.16,6.16,0.79,8.73,2.48C331.07,445.27,332.18,446.23,332.86,447.49"/>
								</g>
							</g>
						</g>
					</g>
				</g>
				<path class="st10" d="M326.88,467.39c-0.77-0.36-1.53-0.71-2.3-1.07c-0.13-0.06-0.27-0.12-0.42-0.11
					c-0.16,0.02-0.29,0.14-0.4,0.27c-0.53,0.64-0.67,1.62-0.25,2.35c0.41,0.73,1.38,1.11,2.15,0.79c0.81-0.34,1.21-1.28,1.27-2.16
					L326.88,467.39z"/>
				<g>
					<path class="st4" d="M325.74,469.79c0.04,0.04-0.48,0.37-1.35,0.12c-0.42-0.13-0.9-0.45-1.19-0.97
						c-0.3-0.51-0.41-1.23-0.15-1.88c0.12-0.32,0.32-0.61,0.56-0.83c0.12-0.11,0.24-0.21,0.39-0.29c0.15-0.11,0.46-0.12,0.6-0.04
						c0.52,0.29,0.88,0.54,1.23,0.77c0.67,0.45,1.07,0.75,1.03,0.82c-0.04,0.06-0.5-0.13-1.22-0.5c-0.42-0.22-0.82-0.43-1.23-0.64
						c-0.1-0.03-0.09-0.03-0.18,0.02c-0.09,0.06-0.2,0.14-0.28,0.23c-0.18,0.18-0.33,0.4-0.42,0.65c-0.2,0.5-0.13,1.05,0.09,1.47
						c0.22,0.42,0.56,0.7,0.9,0.85C325.21,469.86,325.73,469.7,325.74,469.79z"/>
				</g>
				<g>
					<path class="st4" d="M325.02,459.43c-0.05,0-0.04-0.42-0.25-1.12c-0.2-0.69-0.68-1.7-1.72-2.47c-1.01-0.77-2.66-1.2-4.25-0.6
						c-1.58,0.55-2.94,2.23-2.92,4.19c-0.02,1.96,1.34,3.64,2.92,4.19c1.59,0.6,3.24,0.17,4.25-0.6c1.04-0.77,1.53-1.78,1.72-2.47
						C324.97,459.85,324.97,459.43,325.02,459.43c0.02,0,0.03,0.1,0.04,0.3c0.01,0.2-0.01,0.5-0.09,0.87
						c-0.15,0.74-0.6,1.84-1.7,2.71c-1.06,0.87-2.87,1.39-4.64,0.76c-1.76-0.58-3.3-2.45-3.28-4.64c-0.02-2.19,1.52-4.06,3.28-4.64
						c1.78-0.64,3.58-0.12,4.64,0.76c1.1,0.87,1.55,1.98,1.7,2.71c0.08,0.37,0.1,0.67,0.09,0.87
						C325.05,459.33,325.03,459.43,325.02,459.43z"/>
				</g>
				<g>
					<path class="st4" d="M336.25,458.99c-0.05,0-0.05-0.41-0.24-1.09c-0.19-0.67-0.66-1.65-1.68-2.4
						c-0.98-0.75-2.59-1.16-4.14-0.58c-1.54,0.53-2.86,2.17-2.84,4.08c-0.02,1.91,1.31,3.54,2.84,4.08
						c1.55,0.58,3.16,0.17,4.14-0.58c1.02-0.75,1.49-1.73,1.68-2.4C336.2,459.4,336.2,458.99,336.25,458.99
						c0.02,0,0.03,0.1,0.04,0.3c0.01,0.19-0.01,0.48-0.08,0.85c-0.14,0.72-0.58,1.79-1.65,2.65c-1.03,0.85-2.79,1.36-4.53,0.74
						c-1.72-0.57-3.22-2.39-3.2-4.53c-0.02-2.14,1.48-3.96,3.2-4.53c1.73-0.62,3.49-0.11,4.53,0.74c1.07,0.85,1.51,1.93,1.65,2.65
						c0.08,0.36,0.09,0.65,0.08,0.85C336.28,458.89,336.27,458.99,336.25,458.99z"/>
				</g>
				<g>
					<path class="st4" d="M327.08,457.96c-0.1,0.1-0.55-0.19-1.15-0.17c-0.6,0-1.03,0.31-1.14,0.21c-0.14-0.07,0.28-0.72,1.13-0.74
						C326.77,457.25,327.22,457.88,327.08,457.96z"/>
				</g>
				<g>
					<path class="st4" d="M315.89,458.77c0.09,0.12-0.79,0.91-1.95,1.78c-1.16,0.87-2.18,1.48-2.26,1.36
						c-0.09-0.12,0.79-0.91,1.95-1.78C314.8,459.26,315.81,458.65,315.89,458.77z"/>
				</g>
			</g>
		</g>
		<g>
			<path class="st4" d="M408.71,459.21c0,0.14-11.57,0.26-25.84,0.26c-14.27,0-25.84-0.12-25.84-0.26s11.57-0.26,25.84-0.26
				C397.14,458.95,408.71,459.06,408.71,459.21z"/>
		</g>
		<g>
			<path class="st4" d="M384.81,464.62c0,0.14-6.14,0.26-13.72,0.26c-7.58,0-13.72-0.12-13.72-0.26s6.14-0.26,13.72-0.26
				C378.67,464.36,384.81,464.47,384.81,464.62z"/>
		</g>
	</g>
</g>
<g>
	<path class="st6" d="M563.52,499.16c0,0,13.73,6.69,18.56,23.97c4.82,17.28,19.59,62.28,19.59,62.28s8.44,9.93,9.35,17.28
		c0.9,7.35-0.9,25.14-3.62,28.46c-2.71,3.32-6.58,2.77-6.58,2.77l-35.53-3.37l-13.99-93.68L563.52,499.16z"/>
	<path class="st6" d="M446.03,497.53c0,0-25.4,7.97-31.73,14.9l20.8,96.77l-0.33,30.53H555.2c0-1.51,1.08-101.37,1.08-101.37
		l7.24-39.19l-42.81-7.54l-8.44-6.63l-47.63,2.41l-7.24,7.23L446.03,497.53z"/>
	<g class="st7">
		<path d="M455.68,581.48c-0.37-0.82-0.9-1.71-1.78-1.89c-1.45-0.3-2.42,1.42-2.91,2.81c-3.91,11.08-9.09,21.27-15.82,30.89
			l-0.31,14.86c7.02-5.91,13.94-12.24,18.42-20.25C457.75,599.89,459.46,589.84,455.68,581.48z"/>
	</g>
	<path class="st6" d="M414.3,512.43c0,0-8.37,11.41-11.85,18.86c-3.48,7.45-32.28,70.01-34.01,76.47
		c-1.74,6.46-6.21,26.81,6.95,31.53h27.06l27.16-54.93l1.39-63.75L414.3,512.43z"/>
	<g>
		<path class="st4" d="M404.18,599.61c-0.04,0.04-0.6-0.53-1.85-1.24c-1.24-0.7-3.18-1.51-5.68-2.06c-1.25-0.27-2.64-0.49-4.14-0.58
			c-1.5-0.09-3.11-0.07-4.75,0.31c-3.28,0.73-6.54,2.81-9.11,5.72c-2.61,2.91-4.21,6.35-5.16,9.59c-0.96,3.25-1.37,6.3-1.63,8.85
			c-0.25,2.56-0.35,4.64-0.44,6.08c-0.04,0.67-0.08,1.22-0.1,1.66c-0.03,0.38-0.05,0.58-0.07,0.58c-0.02,0-0.03-0.2-0.03-0.58
			c0-0.44,0-0.99,0.01-1.66c0.03-1.44,0.07-3.53,0.27-6.11c0.21-2.57,0.59-5.65,1.53-8.96c0.93-3.29,2.56-6.82,5.23-9.8
			c2.63-2.98,5.99-5.11,9.4-5.84c1.7-0.38,3.36-0.39,4.88-0.27c1.52,0.11,2.93,0.35,4.19,0.65c2.53,0.6,4.47,1.47,5.7,2.24
			c0.61,0.39,1.06,0.74,1.34,1C404.06,599.45,404.2,599.6,404.18,599.61z"/>
	</g>
	<g>
		<path class="st4" d="M391.35,588.67c0-0.04,0.32-0.09,0.91-0.15c0.59-0.07,1.45-0.09,2.51-0.03c1.06,0.05,2.32,0.23,3.69,0.55
			c1.36,0.34,2.84,0.84,4.31,1.53c1.46,0.71,2.78,1.54,3.9,2.39c1.11,0.87,2.04,1.73,2.75,2.53c0.71,0.79,1.24,1.47,1.55,1.97
			c0.32,0.5,0.49,0.78,0.46,0.8c-0.08,0.06-0.81-1.03-2.28-2.52c-0.73-0.75-1.67-1.57-2.77-2.39c-1.12-0.81-2.41-1.61-3.84-2.3
			c-1.44-0.68-2.87-1.17-4.2-1.53c-1.34-0.34-2.56-0.55-3.6-0.64C392.66,588.66,391.36,588.77,391.35,588.67z"/>
	</g>
	<g>
		<path class="st4" d="M415.82,585.66c-0.01,0.04-0.45,0-1.25-0.1c-0.8-0.1-1.96-0.22-3.39-0.33c-2.86-0.22-6.84-0.27-11.2,0.25
			c-4.35,0.53-8.21,1.52-10.94,2.4c-1.37,0.44-2.47,0.83-3.22,1.12c-0.75,0.28-1.18,0.42-1.19,0.39s0.38-0.24,1.12-0.58
			c0.73-0.35,1.81-0.79,3.18-1.28c2.72-0.98,6.6-2.04,11-2.57c4.39-0.52,8.42-0.41,11.29-0.1c1.44,0.15,2.6,0.33,3.39,0.49
			C415.39,585.53,415.82,585.63,415.82,585.66z"/>
	</g>
	<g>
		<path class="st4" d="M492.9,532.21c-0.01,0.01-0.1-0.1-0.28-0.33c-0.19-0.26-0.44-0.59-0.74-0.99c-0.66-0.92-1.58-2.19-2.72-3.77
			c-2.34-3.3-5.59-7.89-9.43-13.3l0.42-0.06c-1.46,4.28-3.07,9.01-4.76,13.98l-0.11,0.31l-0.27-0.18c-0.18-0.11-0.37-0.24-0.56-0.36
			c-2.24-1.42-4.22-3.13-5.89-4.98c-1.67-1.86-3.06-3.84-4.21-5.82c-2.3-3.97-3.69-7.88-4.63-11.19c-0.94-3.32-1.43-6.08-1.75-7.97
			c-0.16-0.91-0.28-1.63-0.38-2.18c-0.05-0.25-0.1-0.43-0.13-0.56c-0.05-0.11-0.07-0.18-0.06-0.18c0.11-0.05,0.4,1,0.77,2.89
			c0.39,1.88,0.93,4.62,1.91,7.91c0.98,3.28,2.39,7.15,4.69,11.05c1.15,1.95,2.52,3.89,4.17,5.72c1.66,1.81,3.6,3.49,5.79,4.88
			c0.19,0.12,0.38,0.24,0.55,0.35l-0.38,0.14c1.71-4.97,3.33-9.69,4.8-13.96l0.15-0.45l0.27,0.39c3.77,5.45,6.97,10.08,9.27,13.41
			c1.1,1.61,1.97,2.91,2.61,3.85c0.28,0.42,0.5,0.76,0.68,1.03C492.84,532.08,492.91,532.2,492.9,532.21z"/>
	</g>
	<g class="st7">
		<path d="M524.25,578.4c-1.12,11.19,1.35,22.71,6.96,32.45c5.6,9.75,13.82,18.43,24.05,23.1c0.33-9.93-0.15-21.63,0.18-31.56
			L524.25,578.4z"/>
	</g>
	<g>
		<path class="st9" d="M523.12,565.33c0,0-4.37,1.21-1.09,10.18c3.28,8.96,4.37,8.42,6.56,16.81c2.19,8.38,4.74,16.04,8.57,20.78
			c3.83,4.74,18.05,14.4,18.05,14.4l12.76-12.03c0,0-2.1-8.97-1.6-15.06c0.5-6.09,1.78-21.04,1.6-23.59
			c-0.18-2.55-2.92-8.75-2.92-8.75v-4.24l-6.56-20.19c0,0-3.65-1.64-4.92,4.19l-2.19-6.19c0,0-3.46-0.55-4.37,6.56
			c-0.91,7.11,0.73,16.95,0.73,16.95l-1.82,12.4l-2.73,8.38l-2.37,0.36c0,0-3.57-0.97-5.52-7.69
			C533.33,571.89,528.04,563.87,523.12,565.33z"/>
		<g>
			<path class="st10" d="M563.69,597.04c-0.01,0-0.03-0.16-0.06-0.46c-0.02-0.35-0.05-0.79-0.09-1.34
				c-0.07-1.22-0.16-2.91-0.27-5.02c-0.2-4.35-0.47-10.41-0.79-17.48l0.06,0.15c-0.59-0.7-1.63-0.91-2.58-0.67
				c-0.97,0.23-1.83,0.83-2.37,1.73c-1.11,1.79-1.18,4.13-1.52,6.39c-0.69,5.11-1.35,9.97-1.95,14.41c-0.3,2.21-0.62,4.32-1.06,6.27
				c-0.42,1.95-1.01,3.73-1.58,5.32c-0.56,1.59-1.06,3.03-1.37,4.33c-0.31,1.3-0.44,2.44-0.41,3.38c0.04,1.88,0.59,2.84,0.5,2.86
				c-0.02,0.01-0.12-0.23-0.31-0.7c-0.15-0.48-0.36-1.2-0.4-2.15c-0.06-0.95,0.04-2.13,0.33-3.45c0.29-1.32,0.77-2.78,1.31-4.38
				c0.55-1.6,1.11-3.35,1.51-5.29c0.41-1.93,0.71-4.03,1-6.24c0.59-4.44,1.23-9.3,1.91-14.41c0.16-1.14,0.28-2.26,0.48-3.39
				c0.2-1.12,0.51-2.24,1.13-3.2c0.58-0.98,1.6-1.7,2.68-1.95c1.07-0.27,2.34-0.03,3.07,0.85l0.05,0.07l0,0.08
				c0.24,7.07,0.45,13.13,0.6,17.49c0.05,2.11,0.1,3.8,0.13,5.03c0.01,0.55,0.01,0.99,0.01,1.34
				C563.71,596.88,563.7,597.03,563.69,597.04z"/>
		</g>
		<g>
			<path class="st10" d="M556.71,574.07c-0.03,0.01-0.23-0.39-0.54-1.14c-0.3-0.75-0.7-1.86-1.07-3.27
				c-0.37-1.4-0.72-3.11-0.92-5.02c-0.1-0.96-0.17-1.98-0.05-3.04c0.11-1.06,0.42-2.18,1.1-3.12c0.58-0.82,1.4-1.48,2.33-1.75
				l0.2-0.06l0.1,0.18c1.85,3.26,3.45,6.14,4.58,8.21c0.52,0.97,0.95,1.78,1.31,2.45c0.3,0.58,0.45,0.9,0.42,0.92
				c-0.03,0.02-0.23-0.28-0.58-0.83c-0.39-0.64-0.87-1.43-1.44-2.37c-1.21-2.03-2.87-4.87-4.74-8.12l0.3,0.12
				c-0.8,0.24-1.53,0.81-2.05,1.56c-0.61,0.86-0.91,1.88-1.02,2.88c-0.11,1.01-0.06,2,0.02,2.94c0.17,1.89,0.47,3.58,0.8,4.98
				c0.32,1.4,0.66,2.52,0.9,3.29C556.61,573.63,556.75,574.05,556.71,574.07z"/>
		</g>
		<g>
			<path class="st10" d="M553.66,575.71c-0.04,0-0.08-0.41-0.12-1.16c-0.03-0.86-0.08-1.92-0.13-3.17
				c-0.09-2.68-0.17-6.38-0.23-10.47c-0.03-4.09-0.19-7.8,0.16-10.49c0.17-1.34,0.44-2.41,0.68-3.12c0.24-0.72,0.44-1.08,0.47-1.07
				c0.09,0.03-0.56,1.58-0.79,4.24c-0.25,2.65-0.04,6.35-0.01,10.44c0.06,4.09,0.08,7.79,0.08,10.47c-0.01,1.25-0.03,2.31-0.04,3.18
				C553.73,575.29,553.7,575.71,553.66,575.71z"/>
		</g>
		<g>
			<path class="st10" d="M542.88,609.32c-0.07-0.06,0.72-1,1.71-2.71c0.5-0.85,1.01-1.91,1.48-3.11c0.45-1.22,0.86-2.59,1.14-4.06
				c0.26-1.48,0.35-2.9,0.35-4.2c-0.02-1.3-0.13-2.47-0.3-3.43c-0.33-1.94-0.75-3.1-0.66-3.13c0.03-0.01,0.16,0.27,0.36,0.79
				c0.21,0.52,0.44,1.3,0.66,2.27c0.22,0.98,0.37,2.17,0.42,3.49c0.03,1.33-0.06,2.79-0.32,4.3c-0.28,1.51-0.71,2.91-1.2,4.14
				c-0.51,1.22-1.07,2.29-1.62,3.13c-0.54,0.84-1.03,1.49-1.41,1.9C543.12,609.12,542.9,609.34,542.88,609.32z"/>
		</g>
		<path class="st9" d="M565.27,603.05l11.07,3.84c0,0,10.57-5.47,17.86,0c7.29,5.47,13.62,19.88,11.62,25.71
			c0,0-5.03,6.21-8.86,7.12c-3.83,0.91-18.71-2.69-24.9-4c-6.21-1.31-16.87-8.24-16.87-8.24L565.27,603.05z"/>
		<g>
			<path class="st10" d="M566.63,619.36c-0.04,0-0.08-0.35-0.12-0.98c-0.04-0.75-0.1-1.64-0.16-2.67c-0.12-2.26-0.27-5.38-0.32-8.84
				c-0.05-3.46,0.05-6.59,0.26-8.85c0.1-1.13,0.22-2.04,0.33-2.67c0.11-0.63,0.19-0.97,0.23-0.96c0.08,0.01-0.09,1.4-0.2,3.65
				c-0.11,2.25-0.15,5.37-0.1,8.82c0.06,3.38,0.12,6.44,0.16,8.84c0.01,1.13,0.01,2.05-0.01,2.68
				C566.7,619.01,566.67,619.36,566.63,619.36z"/>
		</g>
	</g>
	<g>
		<path class="st4" d="M603.15,606.46c-0.08,0.08-1.22-1.5-3.68-3.32c-2.43-1.82-6.37-3.76-11.03-4.02
			c-4.67-0.25-8.8,1.24-11.41,2.78c-2.65,1.54-3.95,2.98-4.02,2.9c-0.02-0.02,0.29-0.39,0.91-0.99c0.62-0.6,1.6-1.4,2.92-2.22
			c2.61-1.65,6.83-3.25,11.63-2.98c4.8,0.27,8.82,2.32,11.23,4.24c1.22,0.96,2.11,1.87,2.66,2.53
			C602.91,606.04,603.17,606.44,603.15,606.46z"/>
	</g>
	<g>
		<path class="st4" d="M601.72,597.22c-0.07,0.11-1.55-1.39-4.61-2.54c-3.01-1.18-7.68-1.72-12.47-0.37
			c-2.39,0.67-4.58,1.62-6.45,2.68c-1.87,1.07-3.43,2.24-4.67,3.3c-1.24,1.06-2.19,1.99-2.84,2.63c-0.65,0.65-1.01,1-1.04,0.98
			c-0.02-0.02,0.29-0.42,0.9-1.12c0.61-0.69,1.52-1.66,2.75-2.77c1.22-1.11,2.78-2.33,4.67-3.44c1.89-1.1,4.11-2.09,6.55-2.77
			c4.91-1.38,9.7-0.76,12.74,0.53c1.54,0.63,2.68,1.36,3.41,1.92c0.38,0.27,0.63,0.53,0.81,0.69
			C601.65,597.12,601.74,597.21,601.72,597.22z"/>
	</g>
	<g>
		<path class="st4" d="M601.82,589.22c-0.03,0.1-1.96-0.49-5.18-0.92c-1.61-0.23-3.54-0.36-5.68-0.36
			c-2.14,0.03-4.49,0.21-6.93,0.62c-2.43,0.44-4.7,1.08-6.73,1.78c-2.01,0.73-3.78,1.51-5.21,2.28c-2.87,1.51-4.49,2.72-4.55,2.64
			c-0.02-0.03,0.37-0.34,1.11-0.89c0.36-0.28,0.82-0.6,1.37-0.94c0.55-0.34,1.17-0.76,1.89-1.13c1.42-0.81,3.2-1.63,5.22-2.4
			c2.04-0.73,4.34-1.39,6.8-1.84c2.47-0.42,4.85-0.59,7.02-0.59c2.17,0.03,4.12,0.2,5.73,0.48c0.81,0.1,1.53,0.29,2.17,0.42
			c0.64,0.13,1.18,0.28,1.61,0.41C601.35,589.03,601.83,589.19,601.82,589.22z"/>
	</g>
	<g>
		<path class="st4" d="M516.98,491.3c0,0,0.51,0.96,0.77,2.94c0.27,1.97,0.23,4.93-0.42,8.59c-0.33,1.83-0.77,3.84-1.43,5.99
			c-0.69,2.15-1.73,4.35-2.91,6.65c-2.38,4.6-5.39,9.61-8.86,14.96l-0.41,0.63l0-0.75c-0.01-3.53-0.01-7.24-0.02-11.1l0.39,0.19
			c-2.98,2.4-6.11,4.93-9.34,7.54l0.08-0.12c-2.16,6.86-3.59,14.5-4.15,22.45c-0.91,12.17-0.18,23.81,0.4,34.37
			c0.49,10.57,0.81,20.1,1.14,28.09c0.32,8,0.61,14.46,0.85,18.93c0.13,2.21,0.23,3.94,0.3,5.14c0.04,0.57,0.07,1.01,0.09,1.34
			c0.02,0.3,0.01,0.46,0.01,0.46s-0.03-0.15-0.07-0.45c-0.03-0.32-0.08-0.77-0.14-1.33c-0.11-1.17-0.25-2.91-0.4-5.14
			c-0.3-4.47-0.65-10.93-1.01-18.93c-0.36-8-0.78-17.52-1.26-28.08c-0.6-10.55-1.35-22.22-0.44-34.43c0.57-7.98,2-15.66,4.19-22.56
			l0.02-0.07l0.06-0.05c3.23-2.6,6.37-5.12,9.35-7.52l0.39-0.31l0,0.5c-0.01,3.85-0.01,7.56-0.02,11.1l-0.41-0.12
			c6.87-10.65,12.46-19.91,13.32-27.4c0.69-3.63,0.77-6.56,0.54-8.53c-0.1-0.99-0.29-1.72-0.41-2.22
			C517.05,491.56,516.98,491.3,516.98,491.3z"/>
	</g>
	<path class="st8" d="M499.04,620.29l-0.36-0.01c-1.45,0.04-2.74,1.36-2.74,2.81c0,1.45,1.28,2.78,2.72,2.83
		c1.45,0.05,2.82-1.19,2.91-2.63C501.68,621.84,500.48,620.43,499.04,620.29z"/>
	<g>
		<path class="st8" d="M499.04,581.75l-0.36-0.01c-1.45,0.04-2.74,1.36-2.74,2.81c0,1.45,1.28,2.78,2.72,2.83
			c1.45,0.05,2.82-1.19,2.91-2.63C501.68,583.3,500.48,581.89,499.04,581.75z"/>
		<path class="st8" d="M498.67,547.27c1.45,0.05,2.82-1.19,2.91-2.63c0.1-1.44-1.1-2.85-2.54-2.99l-0.36-0.01
			c-1.45,0.04-2.74,1.36-2.74,2.81C495.94,545.89,497.22,547.22,498.67,547.27z"/>
	</g>
	<g>
		<g>
			<g>
				<path class="st4" d="M455.5,446.14c-3.51-3.88-7.04-7.81-9.6-12.37c-2.56-4.56-4.08-9.89-3.23-15.05
					c0.49-3.02,1.78-5.89,1.98-8.94c0.28-4.2-1.49-8.59,0-12.52c2.33-6.15,10.61-7.1,15.63-11.35c3.91-3.31,5.81-8.68,10.12-11.47
					c3.76-2.43,8.59-2.38,13.02-1.75c4.43,0.63,8.89,1.75,13.33,1.15c3.16-0.43,6.14-1.7,9.24-2.47c3.1-0.77,6.55-0.97,9.31,0.63
					c2.76,1.6,4.31,5.52,2.5,8.15c5.14-2.37,11.67,1.64,13.08,7.12c1.41,5.48-1.41,11.41-5.77,15.02c-4.36,3.62-9.99,5.3-15.55,6.35
					c-15.75,2.97-32.83,1.29-46.4-7.23"/>
			</g>
			<g>
				<g>
					<g>
						<g>
							<g>
								<g>
									<g>
										<g>
											<g>
												<g>
													<g>
														<g>
															<g>
																<g>
																	<g>
																		<g>
																			<g>
																				<path class="st9" d="M510.86,499.08c-0.77-5.96-1.4-10.93-1.44-11.55c0,0,19.92-4.48,18.82-24.62
																					c-0.53-9.73-3.26-29.7-5.93-47.73c-2.87-19.36-20.16-33.26-39.69-31.96l-1.94,0.13
																					c-20.86,2.62-30.28,21.81-27.08,42.58l11.25,69.67c0,0,4.8,15.41,15.08,18.08l12.96,18.52l2.14-7.97l9.66-8.41
																					c0,0,2.22-2.4,4.76-7.09C511.55,504.9,511.11,500.95,510.86,499.08z"/>
																			</g>
																		</g>
																	</g>
																</g>
															</g>
														</g>
													</g>
												</g>
											</g>
										</g>
										<g>
											<g>
												<g>
													<g>
														<g>
															<g>
																<g>
																	<g>
																		<g>
																			<g>
																				<path class="st10" d="M509.44,487.24c0,0-12.65,1.89-26.74-5.7c0,0,7.17,14.07,27.13,10.91L509.44,487.24z"/>
																			</g>
																		</g>
																	</g>
																</g>
															</g>
														</g>
													</g>
												</g>
											</g>
										</g>
									</g>
								</g>
							</g>
							<g>
								<g>
									<g>
										<g>
											<g>
												<g>
													<g>
														<g>
															<g>
																<g>
																	<g>
																		<g>
																			<g>
																				<g>
																					<g>
																						<g>
																							<path class="st4" d="M515.84,432.49c0.16,1.51-1,2.89-2.58,3.09c-1.58,0.19-2.98-0.88-3.14-2.39
																								c-0.15-1.51,1-2.9,2.57-3.09C514.28,429.9,515.69,430.98,515.84,432.49z"/>
																						</g>
																					</g>
																				</g>
																			</g>
																		</g>
																	</g>
																</g>
															</g>
														</g>
													</g>
													<g>
														<g>
															<g>
																<g>
																	<g>
																		<g>
																			<g>
																				<g>
																					<g>
																						<g>
																							<g>
																								<path class="st4" d="M518.65,425.35c-0.33,0.4-2.62-1.07-5.71-0.85c-3.09,0.17-5.26,1.91-5.62,1.56
																									c-0.18-0.16,0.14-0.86,1.08-1.64c0.93-0.78,2.54-1.59,4.47-1.71c1.93-0.12,3.6,0.48,4.58,1.15
																									C518.45,424.51,518.82,425.17,518.65,425.35z"/>
																							</g>
																						</g>
																					</g>
																				</g>
																			</g>
																		</g>
																	</g>
																</g>
															</g>
														</g>
													</g>
												</g>
												<g>
													<g>
														<g>
															<g>
																<g>
																	<g>
																		<g>
																			<g>
																				<g>
																					<g>
																						<g>
																							<path class="st4" d="M486.62,434.58c0.16,1.51-1,2.89-2.58,3.09c-1.58,0.19-2.98-0.88-3.14-2.39
																								c-0.15-1.51,1-2.9,2.57-3.09C485.06,431.99,486.47,433.07,486.62,434.58z"/>
																						</g>
																					</g>
																				</g>
																			</g>
																		</g>
																	</g>
																</g>
															</g>
														</g>
													</g>
													<g>
														<g>
															<g>
																<g>
																	<g>
																		<g>
																			<g>
																				<g>
																					<g>
																						<g>
																							<g>
																								<path class="st4" d="M488.29,427.96c-0.33,0.4-2.62-1.07-5.71-0.85c-3.09,0.17-5.26,1.91-5.62,1.56
																									c-0.18-0.16,0.14-0.86,1.08-1.64c0.92-0.78,2.54-1.59,4.46-1.71c1.93-0.12,3.6,0.48,4.58,1.15
																									C488.08,427.12,488.45,427.78,488.29,427.96z"/>
																							</g>
																						</g>
																					</g>
																				</g>
																			</g>
																		</g>
																	</g>
																</g>
															</g>
														</g>
													</g>
												</g>
												<g>
													<g>
														<g>
															<g>
																<g>
																	<g>
																		<g>
																			<g>
																				<g>
																					<g>
																						<g>
																							<path class="st4" d="M501.05,450.15c-0.03-0.17,1.87-0.64,4.96-1.24c0.78-0.13,1.52-0.34,1.62-0.89
																								c0.15-0.58-0.24-1.41-0.68-2.31c-0.87-1.86-1.78-3.81-2.74-5.86c-3.82-8.35-6.64-15.23-6.3-15.38
																								c0.34-0.15,3.71,6.49,7.52,14.84c0.92,2.06,1.8,4.02,2.64,5.9c0.36,0.88,0.94,1.86,0.62,3.07
																								c-0.17,0.6-0.72,1.07-1.22,1.24c-0.5,0.19-0.94,0.23-1.33,0.28C503.02,450.18,501.07,450.32,501.05,450.15z"
																								/>
																						</g>
																					</g>
																				</g>
																			</g>
																		</g>
																	</g>
																</g>
															</g>
														</g>
													</g>
												</g>
											</g>
										</g>
									</g>
									<g>
										<g>
											<g>
												<g>
													<g>
														<g>
															<g>
																<g>
																	<g>
																		<g>
																			<path class="st4" d="M488.28,415.79c-0.25,0.86-3.36,0.67-6.96,1.35c-3.61,0.61-6.47,1.87-7,1.14
																				c-0.24-0.35,0.22-1.17,1.35-2.07c1.12-0.89,2.94-1.79,5.1-2.18c2.16-0.38,4.18-0.17,5.54,0.28
																				C487.67,414.76,488.38,415.38,488.28,415.79z"/>
																		</g>
																	</g>
																</g>
															</g>
														</g>
													</g>
												</g>
											</g>
										</g>
									</g>
									<g>
										<g>
											<g>
												<g>
													<g>
														<g>
															<g>
																<g>
																	<g>
																		<g>
																			<path class="st4" d="M516.92,416.47c-0.5,0.74-2.68,0.15-5.24,0.29c-2.57,0.05-4.7,0.79-5.25,0.09
																				c-0.24-0.34,0.05-1.07,0.96-1.8c0.89-0.72,2.42-1.37,4.18-1.44c1.76-0.06,3.33,0.47,4.27,1.13
																				C516.79,415.41,517.13,416.11,516.92,416.47z"/>
																		</g>
																	</g>
																</g>
															</g>
														</g>
													</g>
												</g>
											</g>
										</g>
									</g>
								</g>
							</g>
						</g>
					</g>
				</g>
				<g>
					<g>
						<g>
							<g>
								<g>
									<g>
										<g>
											<g>
												<g>
													<g>
														<g>
															<path class="st9" d="M456.25,440.73c-0.35-0.13-14.1-3.17-12.74,10.57c1.36,13.73,16.24,9.26,16.23,8.86
																C459.71,459.76,456.25,440.73,456.25,440.73z"/>
														</g>
													</g>
												</g>
											</g>
										</g>
									</g>
								</g>
							</g>
						</g>
					</g>
					<g>
						<g>
							<g>
								<g>
									<g>
										<g>
											<g>
												<g>
													<g>
														<g>
															<g>
																<path class="st10" d="M453.64,455.65c-0.06-0.04-0.22,0.19-0.61,0.42c-0.38,0.22-1.04,0.41-1.78,0.21
																	c-1.5-0.39-2.95-2.57-3.26-5.04c-0.16-1.25-0.01-2.46,0.33-3.49c0.32-1.05,0.9-1.81,1.62-2.01
																	c0.71-0.24,1.27,0.15,1.48,0.52c0.22,0.37,0.16,0.65,0.24,0.66c0.04,0.03,0.27-0.26,0.11-0.82
																	c-0.08-0.27-0.28-0.58-0.63-0.81c-0.36-0.24-0.85-0.32-1.36-0.22c-1.05,0.18-1.91,1.25-2.29,2.38
																	c-0.44,1.14-0.63,2.51-0.45,3.91c0.36,2.76,2.03,5.21,4.08,5.58c0.99,0.16,1.77-0.21,2.15-0.58
																	C453.65,455.98,453.69,455.67,453.64,455.65z"/>
															</g>
														</g>
													</g>
												</g>
											</g>
										</g>
									</g>
								</g>
							</g>
						</g>
					</g>
				</g>
				<g>
					<g>
						<g>
							<path class="st4" d="M521.3,396.42c-0.94,5.47-12.03,10.47-21.22,10.21c-8.47-0.25-12.66-4.45-18.82-7.44
								c-3.9-1.89-3.9-1.89-9.18-1.03c-4.28,0.7-6.49,5.74-8.89,9.35c4.57,9.97,2.72,21.56,0.79,32.36
								c-0.21,1.19-0.48,2.48-1.39,3.28c-1.54,1.36-4.05,0.55-5.56-0.84c-2.43-2.23-3.54-5.53-4.33-8.72
								c-1.81-7.28-2.51-14.91-1.36-22.33c1.15-7.42,4.22-14.62,9.29-20.16c6.33-6.92,15.59-10.91,24.96-11.39
								c9.37-0.48,18.78,2.42,26.62,7.56C515.84,389.64,519.25,392.59,521.3,396.42"/>
						</g>
					</g>
				</g>
			</g>
		</g>
		<path class="st10" d="M503.07,457.1c-2.33-1.09-4.67-2.18-7-3.26c-0.4-0.19-0.83-0.38-1.27-0.32c-0.5,0.07-0.89,0.44-1.21,0.82
			c-1.62,1.97-2.03,4.93-0.78,7.15c1.26,2.22,4.21,3.39,6.57,2.41c2.48-1.03,3.69-3.91,3.88-6.59L503.07,457.1z"/>
		<g>
			<path class="st4" d="M499.6,464.4c0.02,0.06-0.32,0.26-1.02,0.41c-0.69,0.13-1.77,0.19-3.01-0.22c-1.23-0.39-2.62-1.35-3.48-2.89
				c-0.87-1.5-1.19-3.61-0.43-5.52c0.36-0.95,0.93-1.79,1.62-2.45c0.35-0.33,0.72-0.61,1.14-0.86c0.22-0.12,0.49-0.24,0.81-0.26
				c0.31-0.02,0.59,0.06,0.81,0.16c0.46,0.2,0.75,0.42,1.09,0.62c0.33,0.2,0.64,0.4,0.95,0.59c0.6,0.38,1.17,0.73,1.7,1.07
				c2.08,1.32,3.32,2.19,3.25,2.32c-0.07,0.12-1.45-0.53-3.62-1.68c-0.55-0.3-1.14-0.62-1.77-0.96c-0.32-0.18-0.65-0.36-0.98-0.54
				c-0.33-0.18-0.7-0.41-0.99-0.52c-0.32-0.11-0.46-0.1-0.77,0.07c-0.31,0.19-0.64,0.45-0.92,0.73c-0.58,0.57-1.05,1.28-1.36,2.09
				c-0.64,1.61-0.41,3.36,0.3,4.69c0.7,1.34,1.83,2.22,2.89,2.66c1.07,0.45,2.05,0.51,2.71,0.51
				C499.2,464.39,499.58,464.33,499.6,464.4z"/>
		</g>
		<g>
			<path class="st4" d="M497.39,432.84c-0.08,0.01,0.01-1.28-0.55-3.48c-0.55-2.15-1.99-5.32-5.23-7.78
				c-1.61-1.2-3.63-2.21-5.96-2.62c-2.31-0.39-4.93-0.32-7.41,0.63c-1.25,0.44-2.46,1.09-3.56,1.92c-1.12,0.81-2.14,1.82-2.98,2.99
				c-1.73,2.31-2.71,5.27-2.74,8.32c0.03,3.05,1,6.02,2.74,8.33c0.84,1.17,1.86,2.18,2.98,3c1.11,0.83,2.31,1.49,3.56,1.92
				c2.48,0.95,5.1,1.02,7.41,0.63c2.33-0.41,4.35-1.42,5.96-2.62c3.24-2.45,4.68-5.62,5.23-7.78
				C497.4,434.11,497.31,432.83,497.39,432.84c0.01,0,0.01,0.08,0.01,0.23c0,0.19-0.01,0.41-0.01,0.68c0,0.3-0.02,0.67-0.09,1.11
				c-0.06,0.44-0.11,0.94-0.27,1.5c-0.23,1.12-0.74,2.45-1.55,3.87c-0.82,1.41-2.01,2.89-3.65,4.15c-1.63,1.25-3.7,2.31-6.1,2.75
				c-2.38,0.42-5.08,0.36-7.65-0.6c-1.3-0.44-2.55-1.12-3.7-1.98c-1.16-0.84-2.22-1.88-3.09-3.09c-1.8-2.39-2.82-5.46-2.85-8.63
				c0.03-3.17,1.05-6.24,2.85-8.63c0.87-1.21,1.93-2.25,3.09-3.09c1.15-0.85,2.4-1.53,3.7-1.97c2.57-0.97,5.27-1.03,7.65-0.6
				c2.4,0.44,4.47,1.51,6.1,2.75c1.64,1.26,2.83,2.74,3.65,4.15c0.81,1.42,1.32,2.75,1.55,3.87c0.16,0.55,0.21,1.06,0.27,1.5
				c0.07,0.44,0.09,0.81,0.09,1.11c0,0.27,0.01,0.5,0.01,0.68C497.41,432.76,497.4,432.84,497.39,432.84z"/>
		</g>
		<g>
			<path class="st4" d="M531.64,431.49c-0.08,0.01,0.01-1.25-0.54-3.39c-0.54-2.1-1.94-5.19-5.1-7.57c-1.56-1.17-3.53-2.16-5.8-2.55
				c-2.25-0.38-4.8-0.31-7.22,0.62c-1.22,0.42-2.39,1.06-3.47,1.87c-1.09,0.79-2.08,1.78-2.9,2.92c-1.69,2.25-2.64,5.13-2.67,8.11
				c0.03,2.98,0.98,5.86,2.66,8.11c0.82,1.14,1.81,2.12,2.9,2.92c1.08,0.81,2.25,1.45,3.47,1.87c2.42,0.92,4.96,1,7.22,0.61
				c2.27-0.4,4.24-1.39,5.8-2.55c3.16-2.39,4.56-5.47,5.09-7.57C531.65,432.74,531.56,431.48,531.64,431.49
				c0.02,0,0.02,0.31,0.01,0.89c0,0.29-0.01,0.66-0.08,1.08c-0.06,0.43-0.11,0.92-0.26,1.46c-0.49,2.14-1.86,5.33-5.07,7.82
				c-1.59,1.22-3.61,2.26-5.95,2.68c-2.32,0.41-4.95,0.35-7.46-0.59c-1.26-0.43-2.48-1.09-3.6-1.93c-1.13-0.82-2.16-1.83-3.01-3.01
				c-1.76-2.33-2.75-5.32-2.77-8.41c0.03-3.09,1.02-6.08,2.78-8.41c0.85-1.18,1.88-2.2,3.01-3.01c1.12-0.83,2.34-1.49,3.6-1.92
				c2.51-0.94,5.14-1,7.46-0.59c2.34,0.43,4.36,1.47,5.95,2.68c3.21,2.49,4.58,5.67,5.07,7.82c0.15,0.54,0.21,1.03,0.26,1.46
				c0.07,0.42,0.09,0.79,0.08,1.08C531.66,431.18,531.66,431.49,531.64,431.49z"/>
		</g>
		<g>
			<path class="st4" d="M503.69,428.33c-0.06,0.06-0.39-0.22-0.99-0.51c-0.6-0.29-1.5-0.57-2.52-0.55c-1.01,0.01-1.91,0.33-2.5,0.64
				c-0.6,0.31-0.91,0.6-0.97,0.55c-0.05-0.04,0.18-0.44,0.78-0.86c0.59-0.42,1.55-0.83,2.68-0.85c1.12-0.02,2.1,0.35,2.71,0.75
				C503.49,427.9,503.74,428.29,503.69,428.33z"/>
		</g>
		<g>
			<path class="st4" d="M469.58,430.8c0.09,0.12-2.72,2.36-6.27,5c-3.55,2.65-6.49,4.7-6.58,4.59c-0.09-0.12,2.72-2.35,6.27-5
				C466.55,432.74,469.49,430.68,469.58,430.8z"/>
		</g>
	</g>
	<g class="st7">
		<path d="M457.74,495.88c-1.39,13.57,3.77,27.9,14.65,36.12c0.85,0.65,1.93,1.28,2.93,0.92c0.7-0.25,1.15-0.92,1.52-1.57
			c3.1-5.37,4.14-11.3,3.25-17.44c-1.72,4.54-3.2,8.99-4.94,13.74C465.67,521.9,459.76,509.66,457.74,495.88z"/>
	</g>
	<path class="st7" d="M494.59,526.74l7.99-2.92l1.32,13.51c0,0,8.62-15.71,12.19-22.88c3.57-7.17,1.73-19.82,1.73-19.82
		s1.28,11.02-7.36,25.07l-6.52,10.6v-11.1L494.59,526.74z"/>
	<g class="st7">
		<path d="M401.68,595.4c-3.56-1.68-7.66-1.91-11.57-1.45c-4.13,0.48-8.28,1.75-11.52,4.36c-3.24,2.61-5.43,6.73-5.03,10.87
			l0.4,0.06c2.79-7.54,8.33-13.03,15.48-13.7c7.15-0.66,14.12,2.52,19.03,7.76C407.99,599.39,405.24,597.08,401.68,595.4z"/>
	</g>
	<g class="st7">
		<path d="M603.66,603.11c-2.68-2.89-6.44-4.64-10.32-5.32c-6.81-1.19-14.12,0.93-19.25,5.57l1.52-1.24
			c3.87-2.27,8.33-3.61,12.82-3.48c4.48,0.13,8.97,1.79,12.22,4.88c2.99,2.85,4.78,6.69,6.49,10.44
			C607.82,610.09,606.34,606,603.66,603.11z"/>
	</g>
	<g>
		<path class="st4" d="M552.17,540.37c-0.03-0.01,0.1-0.4,0.36-1.09c0.31-0.79,0.69-1.76,1.14-2.91c0.97-2.45,2.29-5.84,3.7-9.6
			c1.4-3.77,2.61-7.2,3.48-9.69c0.41-1.16,0.76-2.14,1.04-2.94c0.25-0.69,0.41-1.07,0.44-1.06c0.03,0.01-0.06,0.41-0.25,1.12
			c-0.19,0.71-0.49,1.74-0.88,3c-0.78,2.52-1.94,5.98-3.34,9.75c-1.4,3.77-2.79,7.14-3.84,9.56c-0.53,1.21-0.97,2.18-1.29,2.85
			C552.4,540.02,552.21,540.39,552.17,540.37z"/>
	</g>
	<g>
		<path class="st4" d="M426.1,541.35c-0.14,0.03-1.23-4.73-2.43-10.63c-1.2-5.9-2.06-10.7-1.92-10.73
			c0.14-0.03,1.23,4.73,2.43,10.63C425.39,536.52,426.24,541.32,426.1,541.35z"/>
	</g>
	<g>
		<g>
			<path class="st9" d="M424.22,600.84c0.32,0.16-3.66-31.16-3.66-31.16s2.51-23.77,3.92-24.87l0.04-8.39c0,0,3.89-2.36,4.93,1.45
				c0,0,3.45-2.99,4.05,4.13c0.6,7.12,0.73,14.41,0.73,14.41l7.67,19.18l1.26,0.64c0,0,1.65-15.03,2.61-17.24
				c0.96-2.21,1.62-7.59,5.25-6.78c3.64,0.81,3.94,3.82,3.29,8.72c-0.65,4.9-1.47,9.96-1.16,13.13s1.74,10.14,1.3,15.67
				c-0.44,5.54-3.47,11.38-6.66,15.48c-3.18,4.1-9.26,12.58-12.57,15.14C434.06,621.25,424.22,600.84,424.22,600.84z"/>
			<g>
				<path class="st10" d="M428.09,575.35c-0.04,0-0.03-0.48,0.02-1.34c0.07-0.96,0.15-2.18,0.25-3.64
					c0.23-3.07,0.59-7.31,1.02-11.99c0.22-2.33,0.43-4.56,0.62-6.59c0.1-1.01,0.16-1.96,0.03-2.83c-0.12-0.87-0.46-1.62-0.96-2.16
					c-1.01-1.1-2.32-1.38-3.13-1.37c-0.85-0.01-1.29,0.22-1.31,0.17c-0.01-0.02,0.1-0.07,0.31-0.16c0.22-0.08,0.55-0.18,0.99-0.21
					c0.86-0.06,2.26,0.16,3.41,1.33c0.57,0.58,0.97,1.42,1.11,2.34c0.16,0.93,0.1,1.92,0.02,2.94c-0.18,2.04-0.38,4.26-0.58,6.6
					c-0.43,4.68-0.85,8.91-1.17,11.97c-0.17,1.45-0.31,2.67-0.42,3.62C428.2,574.88,428.13,575.35,428.09,575.35z"/>
			</g>
			<g>
				<path class="st10" d="M432.21,562.54c0.07,0.06-0.78,0.81-1.36,2.47c-0.62,1.63-0.84,4.09-1.28,6.76
					c-0.41,2.68-0.82,5.1-1.13,6.84c-0.32,1.75-0.55,2.82-0.62,2.81c-0.07-0.01,0.03-1.11,0.26-2.87c0.22-1.76,0.57-4.19,0.98-6.87
					c0.43-2.66,0.71-5.13,1.45-6.82c0.35-0.84,0.77-1.45,1.11-1.83C431.96,562.67,432.2,562.52,432.21,562.54z"/>
			</g>
			<g>
				<path class="st10" d="M429.39,537.46c0.04-0.01,0.13,0.34,0.27,0.99c0.14,0.64,0.31,1.57,0.5,2.73c0.38,2.31,0.8,5.52,1.07,9.09
					c0.26,3.57,0.32,6.81,0.28,9.15c-0.02,1.17-0.05,2.12-0.1,2.77c-0.04,0.65-0.08,1.01-0.12,1.01c-0.08,0-0.09-1.45-0.15-3.78
					c-0.06-2.34-0.17-5.56-0.43-9.11c-0.26-3.55-0.62-6.76-0.91-9.08C429.51,538.9,429.32,537.47,429.39,537.46z"/>
			</g>
			<g>
				<path class="st10" d="M451.53,566.82c0.08,0.12-1.12,0.67-2.58,0.22c-1.47-0.44-2.15-1.57-2.02-1.62
					c0.12-0.1,0.88,0.75,2.17,1.13C450.37,566.95,451.49,566.67,451.53,566.82z"/>
			</g>
			<path class="st9" d="M424.65,596.94l-20.27,8.52H392.3c0,0-11.94,3.73-13.78,14.92c-1.84,11.2-2.1,16.96,3.15,18.34
				c5.25,1.38,20.08,1.54,27.43-0.9c7.35-2.44,26.6-17.98,26.6-17.98l1.86-11.24L424.65,596.94z"/>
		</g>
		<g>
			<path class="st10" d="M429.39,609.32c-0.03,0.02-0.23-0.16-0.58-0.53c-0.36-0.35-0.8-0.93-1.32-1.67c-1-1.5-2.1-3.77-2.83-6.41
				c-0.76-2.64-1.08-5.11-1.25-6.89c-0.15-1.78-0.15-2.89-0.08-2.9c0.08-0.01,0.2,1.09,0.44,2.85c0.26,1.76,0.64,4.19,1.38,6.79
				c0.72,2.61,1.74,4.84,2.64,6.36C428.72,608.43,429.47,609.25,429.39,609.32z"/>
		</g>
	</g>
	<g>
		<path class="st10" d="M438.22,612.87c-0.11-0.04,0.8-1.58,1.15-4.34c0.17-1.37,0.15-3.04-0.24-4.83
			c-0.39-1.79-1.24-3.63-2.48-5.35c-1.23-1.73-2.62-3.23-3.78-4.68c-1.18-1.45-2.12-2.86-2.74-4.14c-0.62-1.28-0.91-2.41-1.02-3.2
			c-0.1-0.79-0.06-1.23-0.03-1.23c0.1-0.02,0.07,1.79,1.38,4.26c0.64,1.23,1.6,2.59,2.78,4c1.18,1.42,2.58,2.92,3.84,4.68
			c1.27,1.75,2.16,3.69,2.53,5.54c0.38,1.85,0.35,3.58,0.13,4.98c-0.22,1.41-0.61,2.5-0.93,3.22c-0.15,0.36-0.3,0.63-0.41,0.81
			C438.3,612.79,438.23,612.88,438.22,612.87z"/>
	</g>
	<g>
		<g>
			<path class="st8" d="M406.97,564.07c-0.13,0.07-2.34-3.96-4.94-8.99c-2.6-5.03-4.6-9.16-4.48-9.23c0.13-0.07,2.34,3.96,4.94,8.99
				C405.1,559.87,407.1,564,406.97,564.07z"/>
		</g>
		<g>
			<path class="st8" d="M439.75,527.58c-0.13-0.06,1.24-3.41,3.05-7.49c1.82-4.08,3.4-7.34,3.53-7.28c0.13,0.06-1.24,3.41-3.05,7.49
				C441.46,524.38,439.88,527.64,439.75,527.58z"/>
		</g>
		<g>
			<path class="st8" d="M471.85,551.26c-0.11,0.09-2.17-2.21-4.59-5.14c-2.43-2.93-4.3-5.38-4.19-5.47
				c0.11-0.09,2.17,2.21,4.59,5.14C470.08,548.72,471.96,551.17,471.85,551.26z"/>
		</g>
		<g>
			<path class="st8" d="M464.47,583.83c-0.12-0.08,1.43-2.42,3.46-5.22c2.03-2.8,3.77-5,3.88-4.91c0.12,0.08-1.43,2.42-3.46,5.22
				C466.32,581.72,464.58,583.92,464.47,583.83z"/>
		</g>
		<g>
			<path class="st8" d="M454.53,629.84c-0.06,0.03-0.52-0.73-1.17-2.01c-0.66-1.28-1.51-3.07-2.36-5.08
				c-0.86-2.02-1.55-3.87-2.02-5.23c-0.46-1.36-0.7-2.22-0.63-2.24c0.07-0.02,0.43,0.79,0.98,2.11c0.63,1.5,1.35,3.24,2.15,5.16
				c0.82,1.91,1.57,3.63,2.22,5.13C454.25,628.98,454.59,629.81,454.53,629.84z"/>
		</g>
		<g>
			<path class="st8" d="M482.77,610.28c-0.03,0.14-2.75-0.27-6.07-0.91c-3.33-0.64-6-1.28-5.97-1.42c0.03-0.14,2.75,0.27,6.07,0.91
				C480.12,609.5,482.79,610.14,482.77,610.28z"/>
		</g>
		<g>
			<path class="st8" d="M504.67,567.29c-0.11-0.1,2.49-3.06,5.79-6.63c3.3-3.56,6.07-6.37,6.17-6.27c0.11,0.1-2.49,3.06-5.79,6.63
				C507.54,564.58,504.77,567.39,504.67,567.29z"/>
		</g>
		<g>
			<path class="st8" d="M526.7,624.62c-0.11,0.09-3.34-3.65-7.22-8.36c-3.88-4.71-6.93-8.6-6.82-8.69c0.11-0.09,3.34,3.65,7.22,8.36
				C523.76,620.64,526.82,624.53,526.7,624.62z"/>
		</g>
		<g>
			<path class="st8" d="M389.92,600.19c0.07,0.14-2.88,1.64-6.1,4.11c-3.23,2.45-5.46,4.91-5.58,4.8c-0.05-0.04,0.44-0.71,1.36-1.7
				c0.91-0.98,2.27-2.26,3.9-3.51c1.63-1.24,3.23-2.21,4.42-2.84C389.11,600.43,389.89,600.13,389.92,600.19z"/>
		</g>
		<g>
			<path class="st8" d="M398.16,578.09c0.12,0.08-0.93,1.87-2.35,4c-1.42,2.13-2.66,3.79-2.78,3.71c-0.12-0.08,0.93-1.87,2.35-4
				C396.79,579.67,398.04,578.01,398.16,578.09z"/>
		</g>
		<g>
			<path class="st8" d="M416.72,599.79c-0.11,0.07-1.16-1.68-1.7-4.11c-0.56-2.42-0.37-4.45-0.24-4.44c0.16,0,0.21,1.97,0.75,4.32
				C416.06,597.92,416.86,599.72,416.72,599.79z"/>
		</g>
		<g>
			<path class="st8" d="M419.47,530.87c0.02,0.14-1.7,0.51-3.85,0.81c-2.15,0.31-3.91,0.44-3.93,0.3c-0.02-0.14,1.7-0.51,3.85-0.81
				C417.7,530.86,419.45,530.73,419.47,530.87z"/>
		</g>
		<g>
			<path class="st8" d="M433.42,506.14c0.07,0.13-1.44,1.1-3.37,2.17c-1.93,1.07-3.56,1.84-3.62,1.71c-0.07-0.13,1.44-1.1,3.37-2.17
				C431.72,506.78,433.35,506.02,433.42,506.14z"/>
		</g>
		<g>
			<path class="st8" d="M472.63,516.59c-0.11,0.09-1.84-1.99-3.86-4.64c-2.02-2.65-3.56-4.86-3.44-4.95s1.84,1.99,3.86,4.64
				C471.2,514.28,472.74,516.5,472.63,516.59z"/>
		</g>
		<g>
			<path class="st8" d="M522.4,541.45c-0.1,0.09-1.92-1.78-3.6-4.5c-1.7-2.72-2.57-5.17-2.45-5.22c0.14-0.06,1.22,2.27,2.89,4.95
				C520.9,539.36,522.52,541.35,522.4,541.45z"/>
		</g>
		<g>
			<path class="st8" d="M541.39,547.71c0.13,0.06-0.79,2.38-2.06,5.17c-1.27,2.8-2.4,5.02-2.54,4.96c-0.13-0.06,0.79-2.38,2.06-5.17
				C540.13,549.88,541.26,547.66,541.39,547.71z"/>
		</g>
		<g>
			<path class="st8" d="M544.05,521.78c-0.11,0.09-2.37-2.44-5.05-5.66c-2.68-3.22-4.76-5.91-4.65-6c0.11-0.09,2.37,2.44,5.05,5.66
				C542.08,519.01,544.16,521.69,544.05,521.78z"/>
		</g>
		<g>
			<path class="st8" d="M515.04,500.72c-0.14,0.01-0.35-2.16-0.45-4.85c-0.11-2.68-0.07-4.86,0.07-4.87
				c0.14-0.01,0.35,2.16,0.45,4.85C515.21,498.54,515.18,500.72,515.04,500.72z"/>
		</g>
		<g>
			<path class="st8" d="M538.69,499.41c0.02,0.14-2.75,0.63-6.17,1.09c-3.43,0.46-6.22,0.71-6.24,0.57
				c-0.02-0.14,2.74-0.63,6.17-1.09C535.88,499.52,538.67,499.27,538.69,499.41z"/>
		</g>
		<g>
			<path class="st8" d="M575.95,526.78c-0.13,0.06-1.79-3.11-3.72-7.08c-1.92-3.97-3.38-7.25-3.25-7.31
				c0.13-0.06,1.79,3.11,3.72,7.08C574.63,523.44,576.08,526.72,575.95,526.78z"/>
		</g>
		<g>
			<path class="st8" d="M569.68,550.43c-0.14-0.03,0.25-2.58,0.87-5.69c0.62-3.12,1.24-5.62,1.38-5.59
				c0.14,0.03-0.25,2.58-0.87,5.69C570.44,547.95,569.82,550.46,569.68,550.43z"/>
		</g>
		<g>
			<path class="st8" d="M586.96,569.07c-0.14,0.05-1.46-3.39-2.97-7.68c-1.5-4.29-2.61-7.81-2.47-7.86
				c0.14-0.05,1.46,3.39,2.97,7.68C585.99,565.51,587.1,569.02,586.96,569.07z"/>
		</g>
		<g>
			<path class="st8" d="M584.55,579.98c-0.03,0.13-2.42-0.37-5.05-1.81c-2.64-1.42-4.37-3.15-4.27-3.24c0.1-0.12,1.94,1.4,4.52,2.79
				C582.32,579.11,584.6,579.83,584.55,579.98z"/>
		</g>
		<g>
			<path class="st8" d="M606.69,604.84c-0.13,0.06-0.93-1.46-1.79-3.39c-0.86-1.93-1.45-3.54-1.32-3.6
				c0.13-0.06,0.93,1.46,1.79,3.39C606.23,603.17,606.82,604.78,606.69,604.84z"/>
		</g>
		<g>
			<path class="st8" d="M475.93,639.52c-0.14,0.02-0.49-1.97-0.78-4.43c-0.29-2.46-0.4-4.47-0.26-4.49
				c0.14-0.02,0.49,1.97,0.78,4.43C475.96,637.49,476.08,639.5,475.93,639.52z"/>
		</g>
		<g>
			<path class="st8" d="M543.86,637.8c-0.14-0.03,0.15-1.97,0.65-4.33c0.5-2.36,1.02-4.25,1.16-4.22c0.14,0.03-0.15,1.97-0.65,4.33
				C544.52,635.94,544,637.83,543.86,637.8z"/>
		</g>
	</g>
</g>
<g>
	<g>
		<g>
			<g>
				<g>
					<g>
						<g>
							<g>
								<g>
									<path class="st3" d="M556.89,439.51l8.78-15.48c-3.89-6.31-6.13-13.73-6.13-21.68c0-22.87,18.54-41.41,41.41-41.41
										c22.87,0,41.41,18.54,41.41,41.41c0,22.87-18.54,41.41-41.41,41.41c-9.55,0-18.34-3.24-25.34-8.67l0.01,0.02L556.89,439.51
										z"/>
								</g>
							</g>
						</g>
					</g>
					<g>
						<g>
							<g>
								<g>
									<g>
										<path class="st4" d="M556.89,439.51c0.89-0.2,6.82-1.56,18.76-4.29l0.19-0.04l-0.12-0.16l-0.01-0.02l-0.18,0.18
											c2.36,1.83,5.19,3.63,8.52,5.14c3.33,1.48,7.15,2.68,11.36,3.24c2.1,0.27,4.3,0.44,6.56,0.33
											c1.13-0.06,2.28-0.09,3.44-0.19c1.15-0.17,2.32-0.35,3.5-0.53c4.69-0.93,9.48-2.71,13.96-5.48
											c4.47-2.77,8.61-6.52,11.93-11.13c3.31-4.61,5.82-10.07,7-16c1.16-5.93,1.07-12.28-0.49-18.43
											c-1.57-6.13-4.5-12.11-8.88-17.03l-1.69-1.86c-0.56-0.63-1.22-1.14-1.82-1.72c-0.63-0.54-1.2-1.16-1.88-1.64l-1.99-1.49
											c-0.64-0.52-1.35-0.94-2.06-1.36c-0.7-0.43-1.4-0.85-2.1-1.28c-0.74-0.36-1.47-0.71-2.2-1.07
											c-0.74-0.34-1.45-0.74-2.22-0.99c-6.02-2.39-12.43-3.3-18.57-2.85c-6.14,0.44-12.01,2.2-17.04,5.04
											c-5.05,2.81-9.31,6.57-12.6,10.76c-3.3,4.2-5.62,8.82-7.06,13.43c-1.43,4.63-1.82,9.22-1.8,13.47
											c0.12,4.26,0.9,8.19,2.03,11.63c1.13,3.45,2.62,6.42,4.15,8.91l0-0.12C560.02,433.9,557.31,438.75,556.89,439.51
											c0.44-0.76,3.21-5.57,8.89-15.42l0.04-0.06l-0.04-0.06c-1.51-2.49-2.97-5.45-4.08-8.88c-1.1-3.43-1.86-7.32-1.96-11.55
											c0-4.22,0.4-8.76,1.83-13.34c1.44-4.56,3.75-9.13,7.02-13.28c3.26-4.14,7.48-7.85,12.48-10.62
											c4.98-2.8,10.79-4.53,16.85-4.96c6.06-0.43,12.4,0.47,18.34,2.83c0.76,0.24,1.46,0.64,2.19,0.98
											c0.72,0.35,1.45,0.7,2.17,1.06c0.69,0.42,1.38,0.84,2.08,1.26c0.7,0.42,1.4,0.83,2.03,1.35l1.96,1.47
											c0.67,0.47,1.23,1.08,1.85,1.62c0.59,0.57,1.25,1.08,1.8,1.7l1.67,1.84c4.33,4.86,7.22,10.77,8.77,16.82
											c1.54,6.07,1.64,12.35,0.5,18.21c-1.16,5.86-3.63,11.27-6.9,15.82c-3.27,4.57-7.36,8.29-11.78,11.03
											c-4.42,2.76-9.16,4.53-13.8,5.46c-1.17,0.18-2.33,0.36-3.46,0.53c-1.15,0.1-2.28,0.13-3.4,0.2
											c-2.24,0.12-4.42-0.05-6.5-0.31c-4.18-0.54-7.97-1.72-11.28-3.17c-3.31-1.48-6.13-3.25-8.49-5.05l-0.77-0.59l0.59,0.77
											l0.01,0.02l0.07-0.2C563.69,437.87,557.77,439.3,556.89,439.51z"/>
									</g>
								</g>
							</g>
						</g>
					</g>
				</g>
			</g>
		</g>
	</g>
	<g>
		<g>
			<g>
				<g>
					<g>
						<g>
							<g>
								<path class="st4" d="M612.12,400.62c0,2.23,1.81,4.05,4.05,4.05c2.24,0,4.05-1.81,4.05-4.05c0-2.23-1.81-4.05-4.05-4.05
									C613.94,396.58,612.12,398.39,612.12,400.62z"/>
							</g>
						</g>
					</g>
				</g>
			</g>
		</g>
		<g>
			<g>
				<g>
					<g>
						<g>
							<g>
								<path class="st4" d="M595.93,400.62c0,2.23,1.81,4.05,4.05,4.05c2.24,0,4.05-1.81,4.05-4.05c0-2.23-1.81-4.05-4.05-4.05
									C597.74,396.58,595.93,398.39,595.93,400.62z"/>
							</g>
						</g>
					</g>
				</g>
			</g>
		</g>
		<g>
			<g>
				<g>
					<g>
						<g>
							<g>
								<path class="st4" d="M579.78,398.6c-1.12,1.94-0.45,4.41,1.48,5.53c1.94,1.12,4.41,0.45,5.53-1.48
									c1.12-1.94,0.45-4.41-1.48-5.53C583.37,396,580.9,396.66,579.78,398.6z"/>
							</g>
						</g>
					</g>
				</g>
			</g>
		</g>
	</g>
</g>
</svg>
